<svg width="20" height="20" viewBox="0 0 20 20" fill="none" xmlns="http://www.w3.org/2000/svg">
<path d="M11.0276 0C12.1526 0.003 12.7236 0.009 13.2166 0.023L13.4106 0.03C13.6346 0.038 13.8556 0.0479999 14.1226 0.0599999C15.1866 0.11 15.9126 0.278 16.5496 0.525C17.2096 0.779 17.7656 1.123 18.3216 1.678C18.8301 2.1779 19.2236 2.78259 19.4746 3.45C19.7216 4.087 19.8896 4.813 19.9396 5.878C19.9516 6.144 19.9616 6.365 19.9696 6.59L19.9756 6.784C19.9906 7.276 19.9966 7.847 19.9986 8.972L19.9996 9.718V11.028C20.0021 11.7574 19.9944 12.4868 19.9766 13.216L19.9706 13.41C19.9626 13.635 19.9526 13.856 19.9406 14.122C19.8906 15.187 19.7206 15.912 19.4746 16.55C19.2243 17.2178 18.8307 17.8226 18.3216 18.322C17.8216 18.8303 17.2169 19.2238 16.5496 19.475C15.9126 19.722 15.1866 19.89 14.1226 19.94C13.8853 19.9512 13.648 19.9612 13.4106 19.97L13.2166 19.976C12.7236 19.99 12.1526 19.997 11.0276 19.999L10.2816 20H8.9726C8.24286 20.0025 7.51312 19.9949 6.7836 19.977L6.5896 19.971C6.35221 19.962 6.11487 19.9517 5.8776 19.94C4.8136 19.89 4.0876 19.722 3.4496 19.475C2.78227 19.2244 2.17782 18.8308 1.6786 18.322C1.16965 17.8223 0.775825 17.2176 0.524601 16.55C0.277601 15.913 0.1096 15.187 0.0596004 14.122C0.0484592 13.8847 0.0384591 13.6474 0.0296004 13.41L0.0246005 13.216C0.00617258 12.4868 -0.00216165 11.7574 -0.000399562 11.028V8.972C-0.00319053 8.2426 0.00414359 7.5132 0.0216005 6.784L0.0286005 6.59C0.0366005 6.365 0.0466005 6.144 0.0586005 5.878C0.1086 4.813 0.2766 4.088 0.5236 3.45C0.774714 2.7819 1.16932 2.17702 1.6796 1.678C2.17869 1.16947 2.78274 0.775987 3.4496 0.525C4.0876 0.278 4.8126 0.11 5.8776 0.0599999C6.1436 0.0479999 6.3656 0.038 6.5896 0.03L6.7836 0.0239999C7.51279 0.00623271 8.2422 -0.0014347 8.9716 0.000999928L11.0276 0ZM9.9996 5C8.67352 5 7.40175 5.52678 6.46407 6.46447C5.52638 7.40215 4.9996 8.67392 4.9996 10C4.9996 11.3261 5.52638 12.5979 6.46407 13.5355C7.40175 14.4732 8.67352 15 9.9996 15C11.3257 15 12.5975 14.4732 13.5351 13.5355C14.4728 12.5979 14.9996 11.3261 14.9996 10C14.9996 8.67392 14.4728 7.40215 13.5351 6.46447C12.5975 5.52678 11.3257 5 9.9996 5ZM9.9996 7C10.3936 6.99993 10.7837 7.07747 11.1477 7.22817C11.5117 7.37887 11.8424 7.5998 12.1211 7.87833C12.3997 8.15686 12.6207 8.48754 12.7715 8.85149C12.9224 9.21544 13 9.60553 13.0001 9.9995C13.0002 10.3935 12.9226 10.7836 12.7719 11.1476C12.6212 11.5116 12.4003 11.8423 12.1218 12.121C11.8432 12.3996 11.5126 12.6206 11.1486 12.7714C10.7847 12.9223 10.3946 12.9999 10.0006 13C9.20495 13 8.44189 12.6839 7.87928 12.1213C7.31667 11.5587 7.0006 10.7956 7.0006 10C7.0006 9.20435 7.31667 8.44129 7.87928 7.87868C8.44189 7.31607 9.20495 7 10.0006 7M15.2506 3.5C14.9191 3.5 14.6011 3.6317 14.3667 3.86612C14.1323 4.10054 14.0006 4.41848 14.0006 4.75C14.0006 5.08152 14.1323 5.39946 14.3667 5.63388C14.6011 5.8683 14.9191 6 15.2506 6C15.5821 6 15.9001 5.8683 16.1345 5.63388C16.3689 5.39946 16.5006 5.08152 16.5006 4.75C16.5006 4.41848 16.3689 4.10054 16.1345 3.86612C15.9001 3.6317 15.5821 3.5 15.2506 3.5Z" fill="#808191"/>
</svg>
