<svg width="21" height="20" viewBox="0 0 21 20" fill="none" xmlns="http://www.w3.org/2000/svg">
<path d="M17.54 17.0433H14.5789V12.4022C14.5789 11.2956 14.5567 9.87111 13.0344 9.87111C11.4911 9.87111 11.2556 11.0756 11.2556 12.3211V17.0433H8.29333V7.5H11.1378V8.8H11.1767C11.5744 8.05111 12.5411 7.25889 13.9856 7.25889C16.9856 7.25889 17.5411 9.23445 17.5411 11.8056L17.54 17.0433ZM4.94889 6.19444C4.72284 6.19474 4.49896 6.15041 4.29007 6.06401C4.08119 5.9776 3.89141 5.85082 3.73162 5.69093C3.57183 5.53104 3.44517 5.34118 3.3589 5.13224C3.27263 4.9233 3.22845 4.69938 3.22889 4.47333C3.22911 4.13315 3.3302 3.80067 3.51938 3.51794C3.70856 3.23521 3.97733 3.01493 4.2917 2.88495C4.60607 2.75497 4.95193 2.72113 5.28553 2.78771C5.61914 2.85429 5.92551 3.01831 6.1659 3.25901C6.40629 3.49971 6.56991 3.80629 6.63606 4.13998C6.70221 4.47367 6.66792 4.81948 6.53754 5.13369C6.40715 5.44789 6.18652 5.71638 5.90355 5.90519C5.62057 6.094 5.28796 6.19466 4.94778 6.19444M6.43222 17.0433H3.46333V7.5H6.43333L6.43222 17.0433ZM19.0222 0H1.97778C1.16 0 0.5 0.644444 0.5 1.44111V18.5589C0.5 19.3556 1.16 20 1.97556 20H19.0189C19.8333 20 20.5 19.3556 20.5 18.5589V1.44111C20.5 0.645555 19.8333 0 19.0178 0H19.0222Z" fill="#808191"/>
</svg>
