<?xml version="1.0" standalone="no"?>
<!DOCTYPE svg PUBLIC "-//W3C//DTD SVG 20010904//EN"
 "http://www.w3.org/TR/2001/REC-SVG-20010904/DTD/svg10.dtd">
<svg version="1.0" xmlns="http://www.w3.org/2000/svg"
 width="1024.000000pt" height="1024.000000pt" viewBox="0 0 1024.000000 1024.000000"
 preserveAspectRatio="xMidYMid meet">

<g transform="translate(0.000000,1024.000000) scale(0.100000,-0.100000)"
fill="#000000" stroke="none">
<path d="M6165 8834 c-374 -47 -655 -82 -960 -119 -260 -32 -326 -42 -291 -44
28 -1 1103 129 1264 153 16 2 22 -1 18 -10 -4 -12 -2 -12 17 0 27 18 154 36
249 36 91 0 129 -22 155 -88 15 -40 18 -78 18 -259 0 -116 -3 -214 -7 -218 -9
-10 -76 -24 -82 -17 -3 3 2 11 12 19 9 8 11 12 5 8 -7 -3 -13 0 -13 7 0 8 6
20 13 27 10 10 9 12 -3 9 -11 -2 -14 4 -12 25 3 19 -1 27 -12 27 -10 0 -16 -9
-16 -25 0 -14 -4 -25 -9 -25 -4 0 -8 -13 -7 -30 1 -16 4 -30 9 -30 15 0 6 -17
-31 -58 l-38 -41 -129 -20 c-174 -26 -441 -58 -600 -71 -71 -6 -195 -19 -275
-29 -142 -19 -245 -30 -464 -52 -60 -5 -130 -14 -155 -19 -25 -4 -50 -6 -55
-3 -5 3 -7 0 -4 -8 2 -8 20 -23 40 -33 35 -20 37 -20 259 2 123 13 325 34 449
47 124 14 380 41 570 60 361 37 417 43 463 52 16 3 55 28 87 57 34 31 76 58
102 65 79 24 231 25 363 2 66 -11 172 -27 235 -35 63 -9 207 -29 320 -46 113
-16 222 -30 243 -30 44 0 77 24 58 43 -6 6 -11 8 -11 5 0 -4 -15 -2 -32 3 -18
6 -64 12 -103 15 -154 11 -302 47 -460 111 -60 25 -154 59 -210 75 -55 17
-106 36 -113 43 -19 17 -33 85 -18 85 6 0 61 -16 121 -35 136 -44 311 -88 430
-110 158 -29 238 -47 314 -71 41 -13 77 -22 79 -20 10 11 -201 68 -373 101
-211 41 -291 61 -445 112 -118 40 -167 62 -136 63 15 0 16 3 7 14 -9 11 -9 16
0 22 9 5 6 10 -9 15 -14 5 -20 14 -16 24 4 8 1 15 -6 15 -9 0 -10 3 -1 13 6 8
8 17 4 20 -3 4 18 7 48 8 l54 1 -55 13 c-30 8 -82 14 -115 13 -33 0 -50 -3
-37 -5 38 -7 21 -35 -29 -48 -23 -6 -28 -2 -43 28 -9 19 -16 39 -16 44 0 4 -7
16 -14 25 -11 15 -13 11 -14 -30 -3 -75 -11 -102 -32 -102 -14 0 -22 11 -30
43 -22 88 -102 196 -159 215 -17 6 -138 -6 -366 -34z m1008 -485 c34 -12 103
-38 152 -59 50 -21 104 -42 120 -48 29 -10 29 -10 -10 -7 -22 2 -50 3 -63 4
-13 1 -21 4 -19 9 3 4 -18 8 -46 9 -47 1 -86 7 -227 32 -30 6 -36 9 -20 10 16
2 20 5 10 8 -19 7 -50 39 -50 52 0 5 -6 12 -12 15 -32 15 110 -7 165 -25z"/>
<path d="M6167 8726 c-4 -10 -1 -31 7 -47 18 -35 19 -35 -134 -49 -63 -6 -192
-22 -287 -35 -94 -13 -231 -29 -305 -35 -151 -12 -249 -24 -395 -51 -148 -26
-163 -45 -163 -204 0 -127 5 -135 83 -135 l54 0 -5 30 c-5 37 23 116 45 124 9
4 13 13 9 22 -5 13 -1 15 21 9 23 -5 25 -4 14 9 -10 12 -10 16 -2 16 7 0 10 4
7 8 -5 8 18 12 67 13 24 0 27 2 17 14 -13 16 4 19 98 15 23 -1 42 3 42 9 0 18
73 31 180 31 64 0 100 4 91 9 -19 12 202 25 270 16 47 -7 52 -6 41 8 -11 13
-4 16 55 22 95 9 194 10 222 1 16 -6 21 -5 17 3 -5 7 5 11 29 11 21 0 34 4 30
10 -3 6 1 7 10 4 8 -4 22 -1 30 6 13 11 15 -3 15 -108 0 -69 -5 -132 -11 -146
-7 -14 -28 -32 -48 -41 l-36 -16 35 6 c20 3 45 16 58 31 23 26 23 32 20 169
-3 142 -3 143 -31 169 -18 17 -39 26 -61 26 -43 0 -66 19 -75 60 -6 28 -8 31
-14 16z"/>
<path d="M7117 8656 c49 -16 120 -30 113 -23 -7 6 -128 37 -143 36 -7 0 7 -6
30 -13z"/>
<path d="M6513 8629 c14 -8 22 -8 30 0 8 8 3 11 -18 11 -26 -1 -28 -2 -12 -11z"/>
<path d="M7388 8573 c7 -3 16 -2 19 1 4 3 -2 6 -13 5 -11 0 -14 -3 -6 -6z"/>
<path d="M6520 8481 c-10 -19 -10 -25 1 -32 20 -12 31 4 21 31 l-9 24 -13 -23z"/>
<path d="M6517 8424 c-9 -10 2 -24 18 -24 9 0 12 6 9 15 -6 16 -17 19 -27 9z"/>
<path d="M2562 8209 c-377 -63 -730 -389 -939 -869 -130 -297 -189 -579 -200
-950 -20 -757 250 -1376 729 -1669 61 -37 151 -80 136 -66 -3 4 -47 30 -97 58
-180 103 -293 220 -426 439 -36 58 -65 110 -65 115 0 4 6 -1 12 -12 24 -44
133 -203 167 -245 20 -25 45 -57 54 -72 10 -16 21 -27 25 -25 4 1 8 -2 10 -8
6 -17 30 -40 77 -74 49 -35 58 -35 22 1 -51 49 -157 178 -177 215 -11 21 -34
56 -50 78 -15 22 -27 42 -25 44 5 5 35 -25 35 -36 0 -4 12 -19 25 -32 14 -13
25 -28 25 -35 0 -6 5 -4 10 4 9 13 12 12 25 -4 8 -10 12 -24 8 -30 -3 -6 -3
-8 1 -5 4 4 28 -14 53 -40 l46 -46 -40 46 c-50 56 -66 86 -57 101 4 6 3 9 -2
5 -5 -3 -22 12 -37 33 -17 24 -23 41 -17 45 6 4 8 11 5 16 -4 5 -4 9 -1 9 2 0
29 -35 59 -77 81 -115 133 -170 222 -236 71 -52 255 -155 255 -142 0 3 -35 22
-77 44 -209 104 -386 298 -492 534 -17 38 -31 72 -31 75 0 9 29 -39 65 -108
236 -447 663 -658 1100 -546 124 32 221 87 270 153 l28 38 -30 -28 c-17 -16
-33 -27 -36 -25 -3 1 -9 -1 -14 -6 -5 -5 -3 -6 5 -2 6 4 12 4 12 -1 0 -9 -78
-61 -130 -85 -115 -54 -411 -70 -552 -30 -96 27 -198 74 -263 120 -142 101
-310 303 -399 479 -40 80 -30 87 12 8 66 -123 154 -237 289 -372 81 -81 104
-98 195 -142 150 -72 245 -95 393 -94 148 2 250 21 349 67 42 20 76 38 76 40
0 2 -33 -8 -72 -24 -129 -49 -219 -65 -363 -63 -94 1 -152 7 -208 22 -158 41
-343 163 -426 281 -20 28 -59 79 -86 113 -28 34 -61 77 -74 95 -25 35 -94 192
-88 198 2 2 25 -39 51 -93 26 -53 73 -128 105 -167 31 -39 71 -91 88 -116 64
-93 213 -206 331 -250 83 -32 227 -60 307 -60 137 0 386 58 460 108 51 34 177
135 194 155 7 9 14 22 15 29 1 7 14 26 29 42 104 112 248 347 312 511 27 67
45 100 45 79 0 -15 -60 -167 -71 -181 -6 -7 -7 -18 -3 -24 4 -8 3 -9 -5 -5 -8
5 -25 -22 -53 -81 -105 -226 -351 -535 -548 -687 -83 -64 -157 -108 -240 -143
-121 -50 -163 -58 -315 -58 -151 0 -214 13 -346 71 -176 76 -367 245 -498 440
-84 125 -96 140 -56 69 56 -101 121 -183 234 -296 220 -220 413 -310 706 -328
347 -22 597 8 863 105 141 51 292 87 306 73 14 -13 26 -11 26 4 0 12 54 35
100 43 49 8 176 69 277 132 73 46 138 56 378 57 149 0 150 0 149 -22 -1 -15 4
-23 15 -24 12 0 11 -2 -4 -9 -11 -5 -56 -9 -100 -10 -71 -2 -76 -3 -45 -12 42
-12 62 -28 34 -28 -14 0 -16 -2 -6 -9 19 -12 -1 -18 -87 -27 l-71 -7 25 -41
c44 -74 72 -102 137 -136 61 -32 67 -33 202 -35 83 -2 142 -7 149 -14 8 -8 7
-11 -3 -11 -10 0 -8 -4 5 -13 34 -26 -5 -32 -245 -38 -129 -4 -274 -10 -322
-14 -67 -6 -104 -3 -160 10 -76 17 -209 64 -218 76 -3 4 -34 21 -69 38 -35 17
-73 38 -83 47 -10 10 -18 13 -18 8 0 -5 -4 -3 -9 5 -5 7 -11 9 -14 4 -11 -18
295 -183 339 -183 6 0 25 -7 40 -15 16 -8 45 -18 65 -21 32 -5 35 -9 36 -40 2
-54 22 -66 131 -76 121 -11 119 -10 117 -45 -4 -56 -2 -54 -52 -48 -67 9 -97
-6 -136 -67 -85 -133 -89 -258 -12 -350 l25 -30 0 29 c0 16 -4 33 -8 38 -5 6
-19 38 -31 72 -26 70 -21 104 25 175 13 21 24 48 24 61 0 13 5 28 12 35 15 15
217 16 273 1 22 -6 52 -13 68 -16 28 -5 38 -23 13 -23 -20 0 -31 -21 -16 -30
19 -11 -52 -19 -192 -21 -102 -1 -128 -4 -128 -15 0 -11 36 -14 203 -15 111
-1 292 -4 402 -8 l200 -6 -180 -8 c-202 -9 -250 -19 -252 -49 -1 -11 -12 -28
-24 -39 -12 -11 -19 -25 -15 -34 4 -11 -2 -15 -22 -15 -25 -1 -26 -1 -7 -13
27 -16 30 -84 3 -93 -22 -7 -23 -17 -4 -34 17 -13 10 -39 -13 -57 -9 -7 -40
-13 -68 -13 -29 0 -53 -4 -53 -10 0 -6 27 -10 60 -10 33 0 60 -4 60 -9 0 -12
-95 -26 -211 -30 -20 -1 -28 -7 -31 -26 -5 -24 -4 -25 53 -25 l59 0 -1 -32 -1
-33 -7 30 c-6 28 -7 27 -14 -19 -4 -27 -8 -70 -9 -95 -1 -25 -5 -3 -8 49 l-6
95 -2 -83 c-1 -59 -6 -88 -17 -98 -13 -14 -15 -10 -15 38 0 29 -5 60 -11 68
-7 11 -9 -3 -7 -50 l3 -64 -55 2 -55 3 40 -25 c61 -38 84 -47 113 -41 15 3 22
3 15 0 -7 -4 -2 -15 13 -31 20 -19 35 -24 76 -24 74 0 132 -30 151 -79 21 -52
30 -106 23 -136 -5 -21 -12 -25 -44 -25 -27 0 -33 -3 -22 -10 8 -5 30 -10 48
-10 19 0 32 -5 32 -12 0 -9 4 -8 10 2 8 12 10 12 10 1 0 -9 4 -10 13 -3 17 14
87 32 87 22 0 -4 6 -8 13 -7 64 2 91 -15 42 -27 -27 -7 -95 -62 -95 -78 0 -5
13 2 30 15 53 45 98 48 70 4 -27 -42 -48 -93 -75 -176 -19 -58 -30 -79 -36
-70 -7 11 -9 10 -9 -4 0 -10 -6 -20 -14 -23 -8 -3 -13 -11 -10 -18 2 -6 -5
-22 -18 -35 l-22 -24 27 7 c19 4 27 2 27 -6 0 -9 3 -8 10 2 5 8 10 10 10 4 0
-7 -18 -38 -40 -70 -23 -33 -48 -70 -58 -84 -9 -14 -21 -28 -27 -32 -6 -5 -6
-8 2 -8 6 0 32 27 56 60 28 37 48 55 51 47 4 -6 4 -2 2 10 -4 25 18 51 29 33
3 -6 11 -8 16 -4 5 3 7 10 3 15 -3 5 -10 7 -15 4 -5 -4 -9 -1 -9 4 0 17 16 13
41 -10 13 -11 18 -18 12 -14 -7 3 -13 1 -13 -4 0 -6 -7 -11 -15 -11 -18 0 -19
-12 -4 -27 8 -8 4 -25 -17 -62 -19 -36 -30 -48 -36 -39 -5 9 -8 6 -8 -10 0
-19 -35 -75 -80 -129 -5 -7 -10 -16 -10 -21 0 -5 -22 -30 -50 -56 -54 -50 -62
-63 -30 -46 11 6 20 8 20 5 0 -5 37 25 66 53 28 27 13 -5 -16 -35 -20 -21 -26
-33 -18 -35 10 -4 10 -8 -1 -22 -8 -9 -21 -14 -29 -11 -12 4 -13 3 -2 -10 11
-13 10 -14 -5 -9 -12 5 -16 4 -12 -3 4 -6 -8 -17 -26 -24 -17 -7 -38 -19 -45
-26 -7 -7 -21 -13 -30 -13 -9 0 -24 -5 -32 -10 -15 -11 -9 -10 65 5 35 7 29
-8 -27 -66 -27 -27 -48 -53 -48 -59 0 -5 -7 -10 -15 -10 -13 0 -20 -19 -16
-43 1 -5 -3 -6 -8 -2 -11 6 -41 -34 -45 -58 -1 -8 -27 -46 -57 -83 -30 -38
-77 -100 -104 -139 -26 -38 -56 -77 -65 -85 -9 -8 -43 -53 -76 -99 -32 -46
-68 -89 -79 -97 -11 -8 -14 -14 -6 -14 18 0 106 93 160 170 46 66 101 141 126
172 7 9 19 27 26 40 6 13 32 47 58 77 25 29 60 71 77 92 26 32 34 36 43 25 14
-16 -2 -32 -20 -20 -6 4 -9 -1 -7 -13 2 -11 -14 -36 -40 -63 -48 -50 -110
-125 -160 -191 -18 -24 -50 -68 -72 -96 -22 -29 -41 -65 -42 -80 -3 -30 -19
-53 -38 -53 -7 0 -9 -7 -6 -16 5 -12 1 -14 -15 -9 -14 5 -19 3 -15 -3 7 -12
-50 -82 -68 -82 -6 0 4 13 22 28 17 15 32 32 32 37 0 5 -16 -6 -35 -25 -19
-18 -32 -37 -30 -41 7 -10 -43 -49 -62 -49 -8 0 -21 -7 -30 -15 -28 -28 -26
-7 3 32 l29 37 -33 -22 c-17 -13 -32 -21 -32 -17 0 3 -13 -1 -30 -10 -16 -9
-30 -11 -30 -6 0 5 -13 3 -30 -5 -16 -9 -34 -13 -40 -9 -5 3 -10 2 -10 -2 0
-5 -15 -9 -32 -9 -18 0 -43 -4 -55 -8 -18 -6 -23 -3 -24 11 0 10 -3 13 -6 6
-2 -7 -21 -13 -41 -13 -20 0 -44 -5 -52 -10 -10 -6 -20 -4 -32 7 -17 15 -19
14 -38 -7 l-20 -23 -9 24 c-5 13 -10 18 -10 11 -1 -19 -22 -37 -56 -49 -37
-12 -40 -24 -17 -53 18 -22 28 -24 203 -33 236 -11 465 -3 704 27 22 3 94 10
160 16 66 6 190 17 275 25 85 8 256 22 380 30 124 8 241 17 260 20 46 7 456
32 635 40 77 3 214 10 305 15 375 22 581 30 885 35 823 13 966 17 1045 26 111
12 131 16 144 30 8 9 5 10 -11 6 -12 -3 -22 -2 -21 2 3 29 -4 71 -12 66 -5 -3
-10 -1 -10 4 0 6 -3 10 -7 9 -5 -1 -28 1 -53 5 -33 6 -41 10 -30 17 13 8 13
10 -1 10 -9 0 -42 13 -74 29 -33 17 -63 27 -68 24 -6 -3 -7 -2 -4 4 4 6 -11
15 -33 22 -21 6 -52 25 -69 41 -16 17 -32 30 -36 30 -15 0 -133 74 -129 81 2
4 0 10 -6 14 -5 3 -10 2 -10 -3 0 -5 -16 -2 -35 7 -20 9 -33 21 -30 29 3 7 0
10 -5 7 -5 -3 -20 3 -32 15 -12 11 -28 18 -35 16 -6 -3 -10 1 -7 7 2 7 -10 21
-28 31 -18 11 -70 43 -116 73 -46 29 -89 50 -95 47 -7 -4 -9 -4 -5 1 6 7 -44
51 -91 80 -9 6 -31 20 -49 33 -17 13 -32 21 -32 18 0 -3 -12 6 -27 20 -14 13
-31 23 -38 22 -7 -2 -24 11 -39 29 -15 18 -55 49 -89 70 -34 20 -66 41 -72 46
-5 4 -35 26 -65 48 -30 21 -64 46 -75 55 -11 8 -32 23 -47 32 -16 9 -28 20
-28 24 0 4 -7 8 -15 8 -8 0 -15 3 -15 8 0 4 -18 18 -40 32 -22 14 -40 28 -40
32 0 4 -8 9 -17 12 -10 4 -34 21 -54 39 -21 17 -50 41 -65 52 -33 23 -111 91
-136 119 -10 10 -18 15 -18 11 0 -14 -57 48 -64 70 -3 11 -24 40 -47 65 -22
24 -49 64 -59 88 -11 24 -33 56 -50 72 -23 21 -25 27 -11 23 25 -6 42 -27 73
-83 52 -98 84 -135 216 -250 83 -71 121 -95 57 -35 -130 122 -175 171 -206
226 -19 34 -52 89 -74 123 -36 55 -38 62 -20 62 11 0 24 -5 28 -10 5 -7 7 -5
4 4 -2 8 -23 28 -46 45 l-42 30 -177 3 c-157 4 -184 2 -237 -16 -33 -11 -80
-22 -105 -23 l-45 -4 0 145 0 144 35 9 c19 5 44 17 55 27 11 9 38 23 60 30 22
7 43 18 47 24 4 6 8 48 8 92 l0 82 -40 16 c-22 9 -54 16 -70 16 -28 0 -40 13
-22 23 4 3 52 -4 107 -15 81 -16 112 -18 161 -10 74 12 137 40 184 82 l35 30
-39 -25 c-21 -14 -44 -25 -50 -24 -6 0 0 8 14 17 14 9 38 30 54 47 16 16 33
29 38 27 5 -1 6 3 2 9 -4 7 0 17 8 23 27 20 51 142 45 226 -7 85 -14 113 -29
104 -6 -4 -7 2 -3 16 4 14 3 20 -3 16 -12 -7 -25 22 -15 36 3 7 1 8 -5 4 -6
-4 -21 7 -34 25 -34 46 -96 79 -151 79 -93 0 -182 -111 -208 -259 -7 -40 -15
-59 -19 -50 -13 23 14 162 39 204 71 119 148 158 238 120 20 -8 38 -13 41 -10
10 9 -55 28 -114 33 -44 3 -70 0 -92 -12 -18 -9 -32 -14 -32 -11 0 18 -41 -21
-60 -57 -15 -29 -17 -38 -6 -29 8 7 18 21 21 32 4 11 11 17 16 13 5 -3 8 -2 7
3 -2 4 -1 8 2 8 3 0 18 8 34 18 46 31 39 13 -12 -30 -26 -22 -59 -62 -72 -89
-14 -27 -31 -55 -37 -62 -7 -7 -13 -22 -13 -33 0 -10 -4 -19 -10 -19 -5 0 -10
3 -10 8 0 6 32 98 65 187 l7 20 -15 -20 c-31 -42 -97 -194 -97 -224 0 -23 -4
-31 -17 -30 -11 0 -13 3 -5 6 6 2 12 19 12 37 0 34 43 150 65 176 7 8 18 26
25 40 l13 25 -26 -24 c-14 -13 -38 -53 -53 -88 -16 -36 -30 -61 -32 -55 -4 14
45 132 65 154 9 10 60 32 115 48 97 31 104 36 99 78 -1 9 28 12 121 12 137 0
112 8 313 -110 106 -62 555 -288 810 -407 99 -47 215 -101 258 -121 l77 -36 0
-51 c0 -32 7 -61 19 -81 18 -30 158 -128 361 -254 41 -26 118 -74 170 -108
229 -146 343 -215 390 -235 48 -20 51 -20 105 -3 111 35 247 209 214 274 -7
15 -13 30 -13 34 -2 14 -24 28 -156 93 -74 37 -156 78 -181 91 -26 13 -54 24
-63 24 -9 0 -16 4 -16 10 0 5 -12 13 -27 16 -16 4 -39 15 -53 24 -14 9 -45 25
-70 34 -25 10 -72 32 -105 51 -33 18 -91 50 -130 70 -130 69 -164 95 -171 129
-3 18 -5 36 -4 41 11 52 -32 97 -73 77 l-22 -11 23 0 c15 -1 26 -10 32 -27 14
-37 12 -47 -7 -39 -10 4 -26 7 -35 7 -9 0 -19 6 -22 14 -7 19 -56 19 -56 0 0
-12 -4 -12 -27 -1 -16 8 -136 65 -268 128 -468 222 -725 351 -718 358 5 5 175
9 380 11 204 2 374 6 378 9 3 4 7 21 7 38 1 23 6 32 22 36 12 2 133 6 271 10
137 3 281 10 319 16 128 18 197 64 239 159 24 55 29 78 17 85 -6 4 -9 13 -7
20 4 8 -5 11 -30 9 -39 -3 -48 -8 -39 -23 4 -6 20 -8 38 -4 20 4 29 3 25 -4
-9 -14 -76 -22 -71 -8 6 16 -15 42 -23 29 -9 -13 -123 -25 -123 -12 0 4 16 8
35 8 19 0 35 4 35 9 0 5 -48 9 -107 9 -60 0 -110 1 -113 2 -3 1 -54 4 -115 6
-60 2 -180 7 -265 12 -98 6 -165 6 -183 -1 -18 -6 -42 -6 -72 2 -24 6 -57 11
-72 11 -50 0 -143 29 -178 56 -23 17 -39 42 -50 75 -25 75 -26 100 -26 979 0
658 -7 1397 -15 1710 -7 254 -8 268 -18 293 -5 9 -6 26 -3 37 4 15 0 20 -14
20 -10 0 -18 -3 -17 -7 3 -15 -21 -61 -46 -88 -14 -15 -26 -34 -26 -42 0 -30
-18 -2 -24 38 -10 60 -40 110 -91 149 -11 9 -6 -2 12 -25 17 -22 36 -60 43
-84 13 -50 12 -864 -2 -855 -4 3 -8 1 -8 -5 0 -5 6 -12 13 -14 9 -4 9 -8 -2
-15 -7 -5 -10 -15 -7 -21 4 -6 1 -11 -8 -11 -8 0 -17 -10 -19 -22 l-4 -23 -2
23 c0 12 -5 22 -11 22 -5 0 -7 7 -4 15 8 20 -15 19 -45 -2 -22 -15 -25 -15
-36 1 -10 13 -14 14 -18 4 -4 -10 -8 -10 -16 2 -10 13 -11 13 -11 0 -1 -8 -7
-1 -14 15 -8 18 -15 91 -18 189 -3 93 -10 161 -16 165 -6 3 -14 19 -17 34 -4
15 -12 27 -18 27 -6 0 -29 12 -50 27 -38 26 -39 28 -16 33 20 5 15 10 -43 44
-37 22 -72 49 -78 62 -7 12 -18 20 -25 18 -7 -3 -15 2 -19 11 -5 15 -1 16 34
10 34 -6 39 -4 34 9 -7 18 -20 21 -26 7 -1 -5 -9 -3 -16 5 -11 12 -10 14 3 14
8 0 15 6 16 13 8 160 14 181 50 192 11 4 18 9 16 12 -3 2 -18 -2 -35 -11 -16
-8 -32 -13 -35 -10 -2 3 -99 -4 -213 -15 -115 -11 -258 -24 -319 -28 l-110 -8
90 -19 c50 -10 124 -29 165 -42 84 -28 196 -85 193 -99 -1 -6 19 -23 43 -40
27 -18 42 -35 39 -44 -4 -9 0 -11 10 -7 10 3 13 2 10 -5 -8 -12 23 -81 34 -75
4 3 8 0 8 -7 0 -7 20 -44 45 -83 25 -38 49 -81 53 -95 4 -13 11 -26 14 -29 12
-9 64 -163 75 -225 6 -33 9 -76 6 -95 l-5 -35 -30 47 c-16 27 -35 48 -41 48
-12 0 -29 29 -25 43 1 5 -4 5 -11 1 -10 -6 -10 -5 -1 7 8 11 7 22 -7 49 -10
19 -29 58 -43 85 -23 48 -132 195 -144 195 -3 0 0 -7 7 -15 10 -12 9 -15 -6
-16 -15 0 -13 -2 6 -10 l25 -10 -25 -14 c-14 -8 -37 -14 -52 -15 -24 0 -28 4
-28 29 0 16 7 37 15 45 14 14 11 20 -32 66 -54 58 -181 165 -188 158 -2 -2 11
-21 30 -42 18 -21 32 -43 29 -50 -2 -6 6 -22 19 -36 13 -14 33 -59 46 -100 51
-165 63 -191 101 -222 33 -26 55 -62 74 -122 4 -12 12 -16 24 -11 92 35 146
28 158 -21 13 -51 -56 -53 -82 -3 -8 16 -17 29 -19 29 -2 0 -9 -15 -15 -32
l-10 -33 3 31 c3 29 2 31 -17 20 -12 -6 -24 -15 -28 -21 -5 -6 -8 -3 -8 6 0 9
-7 20 -16 23 -10 4 -13 2 -8 -6 5 -7 7 -25 6 -40 -2 -30 24 -91 80 -183 58
-95 71 -156 71 -335 1 -147 -1 -161 -33 -265 -29 -98 -55 -165 -63 -165 -2 0
1 33 6 73 4 39 7 169 4 287 -3 169 -9 238 -26 324 -55 269 -190 539 -356 710
-59 61 -86 82 -69 55 3 -6 -4 -4 -17 4 -22 14 -131 47 -171 51 -9 1 -23 7 -30
14 -17 14 -143 62 -161 61 -6 0 13 -9 43 -21 53 -20 142 -78 204 -133 34 -29
20 -34 -16 -5 -14 10 -28 17 -31 14 -3 -3 -16 0 -29 6 -32 15 57 -63 109 -98
24 -15 43 -30 43 -34 0 -11 -53 13 -67 30 -6 8 -17 11 -24 6 -7 -4 -10 -3 -6
3 10 16 -16 34 -33 23 -10 -6 -2 -15 32 -37 25 -15 54 -34 64 -41 18 -11 17
-12 -3 -7 -40 11 -25 -4 33 -31 30 -14 58 -34 61 -43 3 -9 13 -24 22 -35 9
-10 16 -32 16 -50 0 -23 6 -34 23 -41 33 -14 27 -21 -15 -18 l-38 3 30 -15
c17 -8 37 -15 45 -15 8 -1 -1 -8 -20 -15 l-35 -13 45 -3 c45 -2 45 -2 10 -8
-19 -4 -40 -5 -46 -4 -5 2 -23 29 -38 59 -16 30 -43 74 -60 97 -54 72 -54 71
-6 64 30 -4 39 -2 29 4 -7 5 -27 8 -44 7 -25 -1 -41 10 -100 71 -88 91 -159
147 -266 204 -89 48 -222 97 -261 96 -13 0 0 -6 27 -14 89 -24 159 -54 225
-96 116 -74 127 -82 141 -105 8 -13 30 -33 49 -46 36 -25 51 -65 29 -79 -8 -5
0 -10 24 -14 23 -5 47 -18 62 -37 24 -28 35 -65 16 -54 -5 4 -12 0 -15 -6 -5
-10 -7 -10 -12 0 -5 10 -9 10 -22 0 -13 -11 -14 -11 -7 1 6 11 3 13 -15 8 -13
-3 -68 3 -122 14 -54 11 -104 17 -110 13 -6 -4 -8 -3 -5 3 11 18 -68 25 -98 9
-15 -8 -34 -12 -41 -9 -30 11 -9 78 29 93 19 8 18 9 -11 9 -18 1 -40 -6 -48
-14 -18 -17 -34 -20 -34 -4 0 5 -5 7 -10 4 -6 -4 -10 -3 -9 2 1 4 -1 16 -6 26
-4 11 -2 29 6 45 23 47 23 48 -10 14 -27 -28 -35 -31 -52 -21 -16 8 -20 18
-17 45 4 32 3 33 -14 17 -17 -15 -20 -15 -49 13 -18 17 -28 36 -25 46 5 22 6
22 -33 2 -26 -13 -35 -13 -47 -3 -8 7 -13 18 -10 26 4 10 1 11 -12 5 -28 -15
-42 -3 -42 36 l-1 37 -14 -25 c-8 -14 -14 -29 -14 -35 -1 -5 39 -32 87 -60 64
-37 113 -76 187 -151 92 -92 105 -110 162 -225 61 -123 89 -201 78 -218 -3 -5
1 -15 8 -23 15 -16 37 -64 37 -83 0 -7 -13 -16 -30 -20 -30 -7 -39 -19 -20
-28 6 -3 5 -4 -2 -3 -7 1 -22 36 -34 77 -38 133 -150 389 -170 389 -2 0 14
-36 36 -79 39 -79 111 -283 124 -353 7 -37 6 -38 -26 -39 l-33 -2 34 -6 c44
-8 51 -29 57 -180 4 -97 2 -112 -11 -108 -8 4 -17 2 -20 -3 -4 -6 6 -10 20
-10 16 0 24 -4 19 -11 -4 -7 -22 -9 -48 -5 -99 14 -186 17 -186 7 0 -12 -41
-14 -89 -5 -49 10 -24 26 38 23 60 -3 80 14 21 19 -51 4 -80 11 -80 21 0 4 36
6 80 3 44 -2 80 -1 80 4 0 5 -24 10 -52 12 -29 1 -66 6 -83 11 -26 8 -23 9 28
10 31 1 57 6 57 11 0 6 -20 10 -44 10 -49 0 -76 7 -76 21 0 5 27 9 60 9 33 0
60 4 60 10 0 6 -24 10 -54 10 -30 0 -58 5 -61 10 -4 6 17 10 54 10 34 0 61 4
61 10 0 6 -27 10 -60 10 -47 0 -60 3 -60 15 0 12 13 15 55 15 73 0 71 18 -2
22 -37 2 -58 8 -61 17 -4 11 7 13 57 7 37 -4 61 -3 61 3 0 5 -27 12 -60 16
-81 9 -90 27 -11 24 33 -1 62 2 63 7 2 5 -25 10 -59 12 -44 2 -63 7 -67 18 -5
13 3 15 54 12 58 -3 77 4 44 16 -9 3 -35 6 -59 6 -30 0 -45 5 -49 16 -5 14 1
15 54 9 41 -5 60 -4 60 4 0 6 -13 11 -29 11 -49 0 -91 12 -91 26 0 10 13 14
41 14 22 0 38 -4 35 -8 -2 -4 4 -9 15 -9 10 -1 19 5 19 13 0 10 -13 14 -42 15
-71 1 -93 17 -25 18 31 1 57 5 57 9 0 5 -27 6 -60 4 -40 -3 -60 -1 -60 7 0 7
23 12 58 12 l57 2 -57 6 c-75 8 -89 25 -15 19 77 -6 73 7 -5 18 l-63 8 60 6
60 5 -65 11 -65 11 60 3 60 2 -59 9 c-79 12 -82 19 -10 20 l59 2 -58 7 c-76
10 -89 24 -14 17 32 -3 57 -2 57 4 0 5 -27 9 -60 9 -38 0 -60 4 -60 11 0 8 17
10 56 5 36 -4 53 -3 49 4 -3 5 -31 10 -61 10 -34 0 -54 4 -54 11 0 8 17 10 55
6 31 -3 55 -2 55 4 0 5 -30 9 -66 9 -78 0 -79 19 -1 22 l52 1 -65 7 -65 7 60
3 60 3 -65 11 -65 11 65 6 c69 6 67 7 -19 15 -68 6 -78 14 -20 16 l44 1 -45 7
-45 7 50 2 c66 2 40 21 -29 21 -27 0 -46 3 -43 7 4 3 32 5 64 4 91 -3 55 10
-57 20 -14 1 -2 5 25 9 l50 7 -52 1 c-28 1 -54 6 -57 10 -9 15 10 31 44 35 21
3 16 3 -12 2 -26 -1 -45 2 -42 7 3 4 -2 8 -10 8 -8 0 -18 5 -22 12 -4 7 -3 8
5 4 6 -4 26 -4 44 0 28 6 30 8 12 15 -29 11 -42 10 -25 -2 12 -8 10 -9 -10 -5
-14 3 -34 6 -45 7 -13 1 -10 4 10 9 l30 7 -45 21 c-25 12 -35 19 -22 16 33 -8
27 5 -9 18 -23 8 -27 13 -17 19 9 6 7 9 -10 9 -13 0 -21 4 -17 9 3 6 18 6 37
0 24 -7 29 -6 20 3 -7 7 -28 12 -48 11 -32 -1 -34 0 -17 14 10 8 12 12 6 8 -7
-3 -25 1 -40 9 -16 8 -24 15 -20 16 5 0 17 -5 28 -10 10 -6 19 -8 19 -6 0 3
-19 15 -42 27 -23 12 -70 44 -103 70 -67 55 -186 120 -272 150 -31 10 -58 19
-61 19 -17 0 35 -40 112 -86 128 -77 182 -116 254 -187 177 -172 282 -364 361
-658 32 -121 64 -339 49 -339 -5 0 -6 -4 -3 -10 9 -15 -21 -12 -32 3 -6 6 -13
37 -17 67 -12 95 -67 321 -101 415 -39 110 -104 239 -158 320 -52 76 -181 210
-277 288 -67 55 -72 57 -42 22 126 -151 227 -283 221 -290 -2 -2 -44 1 -94 5
-49 5 -148 14 -220 20 -76 7 -133 16 -137 23 -10 17 -6 18 33 7 19 -5 97 -14
174 -20 77 -6 157 -14 179 -17 26 -4 37 -2 32 5 -3 6 -14 11 -24 11 -82 2
-402 36 -406 43 -34 59 -156 233 -204 291 -101 122 -244 243 -352 297 -55 27
-51 23 17 -23 121 -81 268 -234 378 -392 146 -210 270 -557 316 -885 17 -120
18 -442 2 -447 -7 -3 -13 -17 -14 -31 0 -24 -1 -25 -8 -7 -5 11 -11 103 -14
205 -13 372 -92 714 -231 1004 -48 100 -145 243 -203 296 -35 33 -35 32 6 -15
54 -63 145 -209 187 -300 81 -177 162 -469 196 -705 16 -114 16 -542 0 -580
-8 -19 -11 5 -11 111 -2 381 -56 673 -183 996 -41 103 -43 106 -46 69 -2 -21
1 -42 6 -45 5 -3 6 -14 3 -24 -5 -14 -21 7 -66 83 -71 123 -147 215 -240 291
-83 69 -220 142 -298 159 -31 7 -54 17 -51 22 3 4 -3 9 -13 9 -10 1 -27 3 -38
4 -11 1 -56 3 -100 4 l-80 3 55 10 c51 9 131 6 225 -7 l40 -6 -30 16 c-36 18
-21 15 82 -21 43 -15 82 -31 87 -36 6 -4 19 -8 30 -8 16 0 17 -3 8 -9 -11 -7
-10 -9 3 -14 9 -4 14 -3 10 3 -16 25 40 0 77 -36 62 -59 20 -2 -61 82 -133
137 -230 206 -373 263 -140 56 -288 73 -426 50z m582 -234 c84 -27 151 -59
161 -75 4 -6 -12 -1 -35 11 -23 12 -86 37 -139 55 -53 18 -89 33 -80 33 9 1
51 -10 93 -24z m-136 -12 c-21 -2 -55 -2 -75 0 -21 2 -4 4 37 4 41 0 58 -2 38
-4z m75 -10 c-7 -2 -19 -2 -25 0 -7 3 -2 5 12 5 14 0 19 -2 13 -5z m-298 -53
c-11 -5 -31 -8 -45 -8 l-25 0 25 8 c14 4 34 8 45 8 l20 1 -20 -9z m399 -85
c247 -75 445 -300 555 -633 75 -224 106 -462 98 -752 -9 -347 -68 -615 -194
-880 -68 -144 -99 -193 -186 -298 -124 -150 -266 -244 -442 -294 -93 -26 -281
-31 -378 -9 -238 53 -443 224 -569 476 -44 87 -107 295 -110 363 -1 28 -5 49
-8 47 -3 -2 -3 20 -1 48 3 29 6 43 8 32 35 -182 101 -369 158 -447 21 -29 20
-25 -38 93 -26 53 -49 111 -52 130 -3 19 -2 27 1 19 73 -173 188 -358 286
-462 69 -73 131 -122 141 -111 4 3 17 -3 30 -15 20 -18 77 -47 77 -38 0 2 -17
15 -37 29 -21 14 -51 37 -66 52 -16 15 -31 24 -35 20 -4 -3 1 -11 11 -16 9 -6
17 -15 17 -21 0 -6 -9 -3 -20 7 -12 10 -19 24 -16 30 2 6 -2 19 -10 30 -8 10
-14 16 -14 12 0 -4 -15 9 -32 30 -18 21 -36 40 -39 43 -6 6 -81 118 -94 140
-13 25 9 1 72 -80 33 -42 86 -98 119 -125 32 -28 68 -58 79 -68 71 -64 202
-120 305 -132 86 -10 74 -1 -26 19 -126 25 -185 56 -299 157 -117 104 -201
215 -262 346 -61 132 -108 303 -84 303 6 0 11 -8 11 -18 0 -10 14 -56 30 -103
70 -191 160 -330 302 -464 92 -87 144 -124 207 -148 42 -16 43 -16 27 2 -10
11 -32 25 -49 32 -61 24 -190 162 -262 279 -35 58 -18 39 84 -87 152 -191 317
-275 537 -272 38 0 78 5 89 10 14 6 9 7 -21 3 -59 -8 -192 12 -274 40 -83 29
-171 86 -209 135 l-26 35 26 -17 c14 -10 29 -14 32 -10 4 3 7 2 7 -4 0 -12
118 -89 174 -112 153 -65 324 -56 463 26 52 30 193 159 193 176 0 5 -8 3 -17
-5 -10 -8 -27 -16 -38 -17 -101 -6 -211 13 -260 45 -15 10 -34 33 -42 51 -18
44 -2 75 68 135 47 41 57 45 98 43 25 -2 39 0 31 3 -30 11 -126 81 -155 113
-36 40 -50 60 -38 57 4 -1 25 6 47 15 21 9 41 17 45 17 4 0 40 13 81 29 41 16
93 31 115 35 38 6 43 4 95 -46 76 -72 115 -105 106 -90 -4 6 -4 12 1 12 4 0
21 23 36 50 16 28 32 50 38 50 15 0 10 31 -12 66 -19 31 -19 35 -5 66 16 34
67 91 105 118 13 10 23 31 27 60 l7 45 -32 -28 c-18 -15 -39 -27 -47 -27 -34
0 -70 124 -59 207 6 46 13 63 40 90 38 38 66 42 95 13 l20 -20 0 79 c0 175
-59 480 -126 647 -94 237 -258 432 -439 520 -124 60 -208 77 -367 72 -69 -2
-124 0 -122 4 10 15 120 62 164 69 67 11 165 1 254 -26z m781 -349 c17 -2 82
-8 145 -11 136 -7 180 -14 180 -27 0 -6 -7 -7 -17 -4 -9 4 -92 11 -185 16 -92
5 -173 12 -178 15 -17 10 -11 27 8 21 9 -2 31 -7 47 -10z m-851 -20 c26 -8 63
-26 82 -41 32 -24 35 -31 31 -64 -7 -55 -31 -141 -39 -141 -5 0 -8 -8 -8 -17
-1 -72 -172 -478 -214 -505 -6 -4 -7 -8 -3 -8 22 0 -26 -30 -98 -59 -192 -80
-377 -185 -439 -250 -17 -17 -35 -31 -42 -31 -22 0 -38 101 -38 230 1 130 40
440 56 440 4 0 8 7 8 15 0 8 3 15 8 15 4 0 15 21 26 46 10 25 38 68 62 97 24
28 44 54 44 58 0 7 147 126 208 168 80 56 251 78 356 47z m976 -27 c127 -2
213 -12 217 -25 3 -8 -11 -9 -44 -3 -26 4 -102 9 -168 9 -126 2 -166 8 -172
27 -3 8 7 9 34 2 21 -5 81 -9 133 -10z m274 5 c3 -9 4 -20 0 -25 -3 -5 1 -9 8
-9 12 0 64 -88 56 -95 -2 -2 -46 3 -98 11 -52 7 -157 13 -232 14 -83 0 -139 4
-143 10 -5 7 54 9 181 7 127 -3 189 -8 192 -16 2 -6 16 -11 30 -10 24 0 25 1
7 9 -17 7 -16 9 10 10 l30 2 -32 9 c-18 5 -33 14 -33 19 0 6 10 6 26 0 16 -7
23 -7 19 0 -3 6 -12 10 -20 10 -7 0 -21 8 -31 17 -16 17 -16 18 7 24 24 7 24
7 -3 8 -37 1 -47 21 -10 21 18 0 32 -6 36 -16z m-342 -49 c20 -3 39 -2 41 2 8
12 249 -5 262 -18 10 -11 0 -11 -191 7 -53 5 -65 4 -59 -6 6 -10 -1 -12 -31
-7 -21 4 -53 7 -70 7 -20 0 -34 6 -38 16 -5 12 -1 15 22 10 15 -2 44 -7 64
-11z m-285 -77 c-3 -8 -6 -5 -6 6 -1 11 2 17 5 13 3 -3 4 -12 1 -19z m591 -12
c54 -13 27 -23 -40 -15 -35 4 -119 9 -188 12 -179 8 -107 -10 95 -24 88 -6
165 -16 170 -21 11 -11 -137 -4 -290 14 -84 9 -104 18 -105 43 0 11 301 3 358
-9z m117 -16 c4 -6 -8 -10 -29 -10 -19 0 -38 5 -41 10 -4 6 8 10 29 10 19 0
38 -4 41 -10z m-225 -56 c105 -5 143 -11 152 -22 11 -13 6 -14 -37 -9 -28 4
-99 9 -160 13 -126 7 -185 19 -185 38 0 12 7 12 45 0 25 -7 108 -16 185 -20z
m230 32 c0 -2 2 -11 5 -19 5 -11 -1 -13 -31 -8 -50 8 -57 31 -10 31 20 0 36
-2 36 -4z m1035 -31 c121 -18 138 -24 161 -60 23 -35 11 -59 -24 -51 -38 9
-270 39 -309 40 -21 1 -33 6 -33 15 0 10 -7 11 -27 6 -59 -16 -73 -14 -73 8 0
11 10 32 23 45 21 23 27 24 98 19 41 -4 124 -13 184 -22z m-1425 -31 c14 -2
90 -9 169 -14 106 -7 149 -14 160 -25 14 -13 12 -15 -12 -15 -16 0 -26 4 -23
9 3 4 -63 11 -147 14 -180 8 -190 9 -199 22 -13 18 -9 27 10 20 9 -3 28 -8 42
-11z m420 6 c0 -5 -18 -10 -39 -10 -22 0 -43 5 -46 10 -4 6 12 10 39 10 25 0
46 -4 46 -10z m-25 -30 l-40 -7 37 -2 c55 -2 58 -21 4 -21 -39 0 -46 3 -46 20
0 17 6 20 43 19 l42 -2 -40 -7z m-285 -30 c153 -10 230 -20 230 -31 0 -12 -28
-11 -87 1 -26 5 -102 11 -168 12 -108 3 -120 5 -123 22 -3 15 0 17 14 11 11
-4 71 -11 134 -15z m342 -35 c-3 -12 -73 -7 -87 6 -7 7 7 9 40 7 28 -2 49 -7
47 -13z m-224 -17 c78 -6 142 -16 142 -21 0 -6 -29 -7 -77 -3 -43 3 -131 9
-195 13 -75 4 -119 10 -122 18 -5 13 20 12 252 -7z m1220 6 c75 -9 149 -22
164 -30 23 -12 58 -59 58 -77 0 -8 -194 2 -249 12 -29 6 -69 11 -87 11 -21 0
-42 9 -60 25 -32 30 -28 29 -59 9 -25 -16 -25 -16 -25 14 0 57 36 62 258 36z
m-980 -32 c3 -10 -7 -12 -39 -10 -24 2 -44 9 -47 16 -3 10 7 12 39 10 24 -2
44 -9 47 -16z m1295 11 c-7 -2 -19 -2 -25 0 -7 3 -2 5 12 5 14 0 19 -2 13 -5z
m-1554 -28 c74 -4 144 -11 155 -16 14 -6 -23 -8 -103 -4 -68 3 -157 5 -198 5
-65 0 -73 2 -73 19 0 16 5 18 43 11 23 -4 102 -11 176 -15z m1536 11 c49 -14
50 -14 15 -17 l-35 -2 40 -7 40 -7 -51 -2 c-45 -1 -52 2 -62 24 -13 29 -13 29
53 11z m-1289 -26 c13 0 24 -4 24 -10 0 -12 -77 -13 -84 -1 -8 12 6 22 22 16
7 -3 25 -5 38 -5z m-252 -26 c118 -4 176 -11 176 -18 0 -8 -52 -9 -190 -2
-155 7 -190 12 -190 24 0 8 6 12 14 9 7 -3 93 -9 190 -13z m1569 -12 c-53 -4
-57 -22 -5 -23 33 -1 34 -2 12 -9 -24 -8 -23 -8 8 -9 49 -2 38 -21 -12 -21
-37 0 -44 3 -49 23 -2 12 -7 29 -11 37 -5 13 2 14 46 10 l53 -5 -42 -3z
m-1303 -2 c-13 -8 -12 -10 3 -10 9 0 17 -4 17 -10 0 -11 -33 -13 -67 -4 -44
12 -23 26 47 32 13 2 13 1 0 -8z m-246 -28 c108 -5 161 -11 163 -19 3 -8 -11
-10 -49 -7 -29 2 -115 7 -190 10 -99 4 -138 10 -138 18 0 8 10 11 28 9 15 -2
99 -7 186 -11z m1271 -17 c151 -15 161 -17 186 -43 15 -15 30 -40 33 -57 4
-16 3 -25 -1 -20 -4 6 -17 10 -28 10 -111 1 -338 35 -358 53 -23 20 -68 27
-77 12 -5 -8 -9 -7 -13 4 -8 20 38 56 72 56 14 0 98 -7 186 -15z m-995 -16 c0
-5 -21 -7 -47 -5 -58 5 -55 4 -49 14 6 10 96 2 96 -9z m-191 -17 c46 -4 86
-12 88 -17 2 -7 -27 -8 -84 -3 -49 3 -134 7 -190 7 -79 1 -103 4 -103 14 0 15
92 14 289 -1z m1536 -2 c11 -1 -5 -8 -35 -15 l-55 -13 55 -2 55 -2 -50 -13
-50 -13 42 -1 c61 -2 65 -21 5 -21 l-49 0 -10 44 -10 45 41 -3 c23 -2 50 -4
61 -6z m-1335 -8 c0 -4 -19 -6 -42 -4 -54 5 -42 -9 15 -19 l42 -6 -45 -2 c-54
-1 -84 13 -60 29 18 12 90 13 90 2z m-290 -33 c185 -9 293 -18 300 -26 3 -3
-51 -3 -120 1 -69 3 -179 6 -245 7 -74 2 -123 6 -127 13 -13 19 -9 28 10 21 9
-4 91 -11 182 -16z m188 -54 c14 -14 -21 -16 -187 -8 -131 6 -181 5 -181 -3 0
-7 47 -14 138 -18 215 -12 255 -17 240 -31 -3 -3 -91 -2 -196 1 l-192 7 0 36
0 36 187 -8 c102 -4 189 -9 191 -12z m117 -5 c4 -6 -13 -10 -44 -10 -27 0 -53
5 -56 10 -4 6 13 10 44 10 27 0 53 -4 56 -10z m1338 3 c-18 -2 -48 -2 -65 0
-18 2 -4 4 32 4 36 0 50 -2 33 -4z m36 -29 c2 -2 -23 -4 -57 -4 -35 0 -62 4
-62 10 0 9 108 3 119 -6z m-352 -5 c71 -5 138 -14 150 -19 24 -10 47 -41 58
-79 6 -18 4 -22 -6 -15 -16 10 -25 11 -99 17 -30 3 -108 11 -172 18 -106 11
-117 15 -127 36 -11 25 -40 30 -59 11 -9 -9 -12 -9 -12 3 0 39 63 45 267 28z
m-1017 -9 c0 -11 -31 -11 -75 0 -26 7 -22 8 23 9 29 0 52 -3 52 -9z m650 -16
c0 -8 8 -14 18 -14 14 0 17 -8 17 -40 0 -34 -3 -40 -20 -40 -32 0 -42 12 -49
60 -6 41 -5 46 14 47 11 1 20 -4 20 -13z m645 6 c11 -5 16 -10 10 -11 -5 -1
10 -5 35 -9 l45 -7 -42 -1 c-46 -2 -93 12 -93 28 0 12 17 12 45 0z m-1492 -29
c62 -1 87 -5 87 -13 0 -10 -43 -12 -190 -10 -171 3 -190 5 -190 20 0 15 10 16
102 11 57 -4 142 -7 191 -8z m203 -2 c3 -5 -4 -9 -14 -9 -33 0 -82 12 -78 19
6 9 85 1 92 -10z m1316 -18 c39 -8 40 -9 13 -11 -25 -3 -22 -4 15 -10 l45 -7
-53 -1 c-30 -1 -51 2 -48 7 4 5 -3 7 -14 4 -15 -4 -20 0 -20 16 0 12 4 19 10
16 5 -3 29 -10 52 -14z m-1329 -8 c-13 -2 -35 -2 -50 0 -16 2 -5 4 22 4 28 0
40 -2 28 -4z m-240 -19 c92 -4 147 -10 147 -17 0 -7 -32 -8 -97 -4 -54 4 -142
7 -195 7 -79 0 -98 3 -98 15 0 11 11 13 48 10 26 -3 113 -8 195 -11z m257 -13
c0 -8 -6 -11 -16 -7 -9 3 -29 6 -45 6 -17 0 -28 3 -26 8 9 13 87 8 87 -7z
m1346 -11 c13 0 24 -5 24 -11 0 -16 -102 -7 -108 10 -4 11 3 13 28 8 18 -4 43
-7 56 -7z m-1461 -32 c6 -6 -58 -9 -182 -6 -140 2 -193 6 -193 15 0 15 359 6
375 -9z m122 8 c13 -13 -8 -18 -52 -12 -60 9 -60 30 0 23 26 -2 49 -7 52 -11z
m1338 -15 l40 -9 -42 -1 c-23 0 -48 -4 -57 -7 -11 -4 -16 -1 -16 10 0 18 15
19 75 7z m-1166 -11 c35 -18 52 -55 40 -89 -6 -17 -17 -31 -24 -31 -17 0 -48
39 -65 80 -14 34 -34 39 -49 13 -10 -17 -10 -17 -11 -1 0 32 68 50 109 28z
m-285 -21 c5 -5 8 -11 5 -13 -2 -2 -91 -2 -196 1 -131 4 -193 10 -193 17 0 14
370 9 384 -5z m750 13 c-6 -4 -14 -14 -17 -22 -4 -10 -6 -8 -6 8 -1 15 5 22
17 22 10 0 13 -3 6 -8z m431 -2 c70 -6 125 -15 132 -23 7 -7 15 -27 19 -45 6
-31 5 -32 -17 -24 -13 5 -60 10 -103 11 -128 3 -234 27 -273 62 l-34 29 78 0
c43 0 132 -5 198 -10z m-1065 -16 c0 -13 -7 -15 -31 -10 -17 3 -38 6 -45 6 -8
0 -14 5 -14 10 0 6 20 10 45 10 35 0 45 -4 45 -16z m1338 -14 c17 0 32 -4 32
-10 0 -5 -25 -10 -55 -10 -44 0 -55 3 -55 16 0 12 6 15 23 10 12 -3 37 -6 55
-6z m-1510 -26 c34 -3 62 -9 62 -14 0 -4 -17 -6 -37 -4 -21 2 -109 6 -195 10
-87 3 -158 10 -158 15 0 8 200 4 328 -7z m172 1 c0 -16 -12 -18 -59 -9 -46 10
-38 24 14 24 33 0 45 -4 45 -15z m1355 -25 c4 -6 -12 -10 -39 -10 -25 0 -46 5
-46 10 0 6 18 10 39 10 22 0 43 -4 46 -10z m-1537 -22 c39 -7 72 -15 72 -18 0
-3 -33 -3 -72 1 -40 4 -121 8 -180 8 -102 1 -138 6 -138 20 0 10 239 2 318
-11z m182 6 c0 -11 -5 -14 -16 -10 -9 3 -29 6 -45 6 -16 0 -29 5 -29 10 0 6
20 10 45 10 35 0 45 -4 45 -16z m627 -16 c-3 -8 -6 -5 -6 6 -1 11 2 17 5 13 3
-3 4 -12 1 -19z m716 -13 c-4 -15 -66 -12 -71 3 -3 10 6 13 34 10 22 -2 38 -7
37 -13z m-1343 -5 c0 -5 -18 -10 -39 -10 -22 0 -43 5 -46 10 -4 6 12 10 39 10
25 0 46 -4 46 -10z m-262 -12 c83 -6 152 -15 152 -19 0 -7 -245 -2 -337 7 -29
3 -53 10 -53 15 0 12 54 11 238 -3z m655 -20 c7 5 53 6 102 3 89 -6 90 -6 93
-33 3 -22 -2 -29 -21 -33 -36 -9 -82 -2 -79 13 1 8 -11 12 -37 12 -22 0 -42 5
-44 13 -3 6 -6 2 -6 -10 -1 -17 -7 -23 -23 -22 -18 0 -19 2 -7 7 30 12 -2 27
-58 27 -29 0 -54 4 -55 9 -2 6 22 9 55 7 42 -2 57 1 58 11 0 10 2 10 6 0 3 -8
9 -9 16 -4z m-425 -5 c-10 -2 -28 -2 -40 0 -13 2 -5 4 17 4 22 1 32 -1 23 -4z
m1168 -9 c53 -6 64 -10 73 -31 13 -29 15 -66 2 -59 -4 3 -33 8 -62 12 -231 27
-289 40 -322 68 l-32 29 140 -6 c77 -4 168 -10 201 -13z m194 9 c-8 -3 -23
-10 -32 -15 -13 -6 -18 -5 -18 7 0 10 10 15 33 14 17 0 25 -3 17 -6z m-1527
-29 c48 -4 87 -10 87 -15 0 -6 -21 -7 -47 -5 -27 3 -114 8 -195 12 -87 4 -148
10 -148 16 0 9 59 8 303 -8z m180 9 c-7 -2 -21 -2 -30 0 -10 3 -4 5 12 5 17 0
24 -2 18 -5z m7 -33 c0 -5 -16 -10 -35 -10 -19 0 -35 5 -35 10 0 6 16 10 35
10 19 0 35 -4 35 -10z m360 0 c0 -13 -70 -13 -90 0 -11 7 0 10 38 10 28 0 52
-4 52 -10z m950 -10 c0 -5 -2 -10 -4 -10 -3 0 -8 5 -11 10 -3 6 -1 10 4 10 6
0 11 -4 11 -10z m-1450 -21 c31 -6 10 -7 -70 -4 -63 3 -152 5 -197 5 -55 0
-83 4 -83 11 0 13 268 4 350 -12z m140 -9 c0 -5 -16 -10 -35 -10 -19 0 -35 5
-35 10 0 6 16 10 35 10 19 0 35 -4 35 -10z m355 0 c4 -6 -13 -10 -44 -10 -28
0 -51 5 -51 10 0 6 20 10 44 10 25 0 48 -4 51 -10z m-618 -26 c84 -4 150 -11
147 -15 -3 -5 -22 -7 -42 -4 -34 5 -217 13 -304 15 -21 0 -38 5 -38 11 0 7 14
9 43 5 23 -3 111 -8 194 -12z m810 10 c-3 -3 -12 -4 -19 -1 -8 3 -5 6 6 6 11
1 17 -2 13 -5z m-568 -25 c-8 -5 -25 -9 -39 -9 -33 0 -10 15 26 17 19 1 23 -1
13 -8z m357 -4 c21 -16 12 -18 -35 -9 -17 4 -31 10 -31 15 0 14 44 10 66 -6z
m-466 -36 c9 -5 -63 -6 -170 -3 -102 4 -189 11 -195 16 -13 12 343 0 365 -13z
m448 -6 c-10 -2 -26 -2 -35 0 -10 3 -2 5 17 5 19 0 27 -2 18 -5z m835 -6 c9
-1 17 -5 17 -10 0 -5 6 -4 14 2 11 9 16 6 25 -19 l11 -32 -43 6 c-23 3 -98 10
-167 16 -153 13 -166 16 -174 35 -5 15 51 15 317 2z m-1175 -4 c-10 -2 -26 -2
-35 0 -10 3 -2 5 17 5 19 0 27 -2 18 -5z m-283 -24 c-89 -8 -195 -3 -195 10 0
3 64 4 142 2 l143 -5 -90 -7z m148 -6 c-7 -2 -21 -2 -30 0 -10 3 -4 5 12 5 17
0 24 -2 18 -5z m-254 -39 c2 -2 -19 -4 -47 -4 -29 0 -52 4 -52 10 0 9 88 3 99
-6z m724 -11 c-7 -2 -19 -2 -25 0 -7 3 -2 5 12 5 14 0 19 -2 13 -5z m-717 -35
c4 -5 -18 -8 -49 -8 -31 0 -57 4 -57 8 0 10 96 9 106 0z m341 -14 c-3 -3 -12
-4 -19 -1 -8 3 -5 6 6 6 11 1 17 -2 13 -5z m390 0 c-3 -3 -12 -4 -19 -1 -8 3
-5 6 6 6 11 1 17 -2 13 -5z m-634 -41 c-23 -2 -64 -2 -90 0 -26 2 -7 3 42 3
50 0 71 -1 48 -3z m244 1 c-3 -3 -12 -4 -19 -1 -8 3 -5 6 6 6 11 1 17 -2 13
-5z m1224 -4 c21 0 26 -26 7 -33 -19 -6 -242 4 -250 12 -4 3 7 7 25 7 18 1 57
6 87 12 30 6 68 8 84 6 16 -2 37 -4 47 -4z m-274 -26 c-3 -3 -12 -4 -19 -1 -8
3 -5 6 6 6 11 1 17 -2 13 -5z m-1239 -11 c-32 -2 -84 -2 -115 0 -32 2 -6 3 57
3 63 0 89 -1 58 -3z m-40 -40 c-27 -2 -69 -2 -95 0 -27 2 -5 3 47 3 52 0 74
-1 48 -3z m135 -10 c-7 -2 -21 -2 -30 0 -10 3 -4 5 12 5 17 0 24 -2 18 -5z
m-248 -33 c13 -6 15 -9 5 -9 -8 0 -22 4 -30 9 -18 12 -2 12 25 0z m142 -6 c-3
-3 -12 -4 -19 -1 -8 3 -5 6 6 6 11 1 17 -2 13 -5z m-160 -40 c-3 -3 -12 -4
-19 -1 -8 3 -5 6 6 6 11 1 17 -2 13 -5z m-2122 -446 c36 -69 153 -242 215
-321 136 -168 382 -287 594 -287 35 0 76 4 92 9 16 5 61 14 99 21 175 30 274
74 407 183 32 26 61 47 65 47 26 0 -178 -160 -252 -198 -90 -45 -282 -82 -426
-82 -93 0 -225 29 -312 68 -64 30 -184 120 -250 190 -55 57 -146 190 -211 308
-31 56 -56 105 -56 108 0 15 10 2 35 -46z m105 -102 c85 -129 235 -285 325
-337 127 -74 267 -115 440 -128 l90 -6 -60 -13 c-154 -31 -404 46 -558 173
-86 71 -203 223 -292 380 -42 74 -25 53 55 -69z m-174 -128 c3 -4 -1 -5 -10
-4 -8 1 -18 5 -22 8 -3 4 1 5 10 4 8 -1 18 -5 22 -8z m4404 -238 c0 -5 -5 -10
-11 -10 -5 0 -7 5 -4 10 3 6 8 10 11 10 2 0 4 -4 4 -10z m57 -22 c-3 -8 -6 -5
-6 6 -1 11 2 17 5 13 3 -3 4 -12 1 -19z m-629 -25 c-14 -16 -28 -35 -31 -43
-4 -10 -6 -7 -6 8 -1 23 31 62 51 62 6 0 0 -12 -14 -27z m123 -35 c54 -47 102
-82 330 -241 85 -59 208 -137 279 -177 36 -20 97 -56 137 -79 65 -38 458 -231
658 -323 214 -98 352 -168 366 -185 21 -23 34 -63 20 -63 -5 0 -12 4 -15 9 -3
5 -18 12 -33 16 -16 4 -91 37 -168 74 -77 37 -174 83 -215 102 -41 18 -200 95
-352 171 -388 192 -641 347 -964 589 -72 55 -136 99 -142 99 -15 0 -15 15 -2
41 16 29 34 24 101 -33z m-979 -160 c-6 -6 -7 0 -4 19 5 21 7 23 10 9 2 -10 0
-22 -6 -28z m-35 0 c-15 -9 -19 -4 -11 16 5 14 9 15 15 5 5 -8 3 -17 -4 -21z
m197 -44 c130 -6 160 -4 167 7 6 9 9 -6 9 -42 l0 -56 -152 -6 c-156 -7 -274
-4 -284 5 -9 9 7 78 21 92 7 7 28 11 46 10 19 -1 105 -6 193 -10z m906 -232
c0 -5 -13 -7 -30 -4 -16 2 -30 6 -30 8 0 2 14 4 30 4 17 0 30 -4 30 -8z
m-1085 -32 c83 -5 162 -13 175 -19 25 -10 25 -10 2 -10 -32 -1 -93 -28 -114
-51 -17 -18 -33 -19 -282 -17 -279 2 -296 5 -291 50 1 12 3 27 4 34 0 6 18 14
39 16 75 8 321 6 467 -3z m1013 -14 c16 -16 -24 -21 -166 -21 -169 1 -240 14
-142 26 60 8 299 3 308 -5z m-148 -59 c0 -9 -13 -14 -66 -21 -33 -5 -43 -2
-48 10 -5 13 -1 15 19 10 14 -4 25 -3 25 1 0 5 16 8 35 8 19 0 35 -4 35 -8z
m102 -18 c-82 -26 -95 -34 -117 -67 -14 -21 -34 -62 -44 -91 -10 -30 -21 -47
-24 -40 -4 10 -6 9 -6 -3 -1 -10 3 -18 7 -18 10 0 -1 -97 -12 -107 -5 -5 -5
16 -1 46 5 38 4 52 -4 47 -6 -4 -11 -20 -11 -37 0 -16 -4 -29 -10 -29 -5 0
-10 -7 -10 -16 0 -8 5 -12 10 -9 6 3 10 1 10 -4 0 -6 -7 -11 -15 -11 -40 0 9
167 74 258 17 23 27 42 22 42 -14 0 -51 -55 -83 -119 -30 -62 -36 -57 -13 10
9 24 11 39 6 34 -11 -11 -37 -106 -46 -168 -8 -57 -15 -77 -26 -77 -12 0 -11
12 5 90 8 36 12 67 9 70 -6 6 -13 7 -53 9 -19 1 -30 6 -30 15 0 10 17 17 54
21 43 6 56 12 67 31 7 13 18 24 24 24 19 0 15 48 -4 53 -9 3 4 6 29 8 25 1 52
3 61 4 9 0 24 7 33 14 17 14 138 49 171 49 11 0 -22 -13 -73 -29z m-1069 -96
c15 -7 27 -16 27 -18 0 -3 -40 -5 -90 -5 -74 0 -90 3 -90 15 0 34 92 39 153 8z
m1354 -12 c35 -26 83 -109 75 -130 -3 -8 0 -11 7 -7 7 5 9 1 5 -9 -4 -8 -1
-22 6 -30 7 -8 13 -48 14 -92 1 -63 -4 -88 -22 -126 -30 -63 -77 -114 -118
-127 -31 -11 -35 -9 -70 25 -20 21 -28 33 -18 27 10 -5 37 -9 59 -8 22 1 46
-2 53 -8 8 -5 12 -5 11 0 -3 20 2 28 10 15 7 -11 11 -10 20 7 14 26 6 48 -20
55 -11 3 -28 26 -41 54 -11 26 -32 58 -44 70 -41 38 -27 97 26 116 12 4 11 6
-4 12 -11 5 -27 3 -37 -4 -19 -11 -24 -5 -20 22 1 4 -6 21 -14 37 -8 16 -15
32 -15 35 0 14 72 35 97 29 l27 -7 -24 -9 c-12 -5 -31 -6 -41 -3 -11 4 -21 -1
-28 -14 -13 -24 -3 -54 16 -47 14 6 83 -33 83 -47 0 -5 -4 -6 -9 -3 -5 3 -14
-1 -21 -9 -7 -9 -8 -15 -2 -15 5 0 12 -7 15 -14 6 -15 -16 -12 -39 5 -6 5 -14
6 -17 3 -10 -10 5 -67 21 -84 18 -17 42 -22 42 -8 0 6 -7 8 -15 4 -8 -3 -15
-1 -15 4 0 5 9 11 19 15 11 3 22 11 24 18 2 7 2 -1 -1 -17 -2 -16 -5 -34 -6
-40 -1 -6 -5 -16 -9 -23 -9 -14 11 -60 28 -67 8 -3 10 4 7 20 -5 29 5 30 34 3
l22 -20 -3 31 c-1 17 -5 33 -9 37 -3 3 -6 25 -5 47 1 40 1 41 10 11 5 -16 10
-45 11 -62 1 -18 5 -33 11 -33 14 0 2 160 -16 205 -9 22 -17 33 -17 25 -1 -8
-8 0 -16 18 -12 26 -12 37 -3 48 9 12 9 13 -3 9 -8 -3 -21 2 -29 12 -13 16
-12 17 4 4 11 -9 17 -10 17 -2 0 6 -4 12 -10 12 -5 1 -14 2 -19 3 -5 0 -13 4
-17 9 -14 13 -69 7 -101 -12 -64 -39 -127 -171 -121 -251 2 -19 -2 -35 -9 -37
-19 -7 -17 131 3 198 12 39 29 67 65 103 48 48 49 48 102 44 34 -3 64 -12 84
-27z m6 -92 c10 -18 16 -33 14 -35 -2 -2 -10 7 -17 21 -7 14 -22 25 -32 25
-10 0 -18 5 -18 10 0 22 36 8 53 -21z m-586 -35 c-3 -3 -12 -4 -19 -1 -8 3 -5
6 6 6 11 1 17 -2 13 -5z m240 -26 c-3 -8 -6 -5 -6 6 -1 11 2 17 5 13 3 -3 4
-12 1 -19z m-27 -38 c0 -5 -4 -10 -10 -10 -5 0 -10 5 -10 10 0 6 5 10 10 10 6
0 10 -4 10 -10z m375 -10 c3 -6 -1 -7 -9 -4 -18 7 -21 14 -7 14 6 0 13 -4 16
-10z m-358 -22 c-3 -8 -6 -5 -6 6 -1 11 2 17 5 13 3 -3 4 -12 1 -19z m304 -2
c5 3 9 -1 9 -9 0 -7 -7 -14 -15 -14 -9 0 -15 9 -14 21 0 12 3 15 6 8 2 -6 9
-10 14 -6z m1648 -121 c22 -7 46 -49 37 -64 -14 -23 -96 32 -96 65 0 12 18 12
59 -1z m-1621 -110 c-3 -3 -9 2 -12 12 -6 14 -5 15 5 6 7 -7 10 -15 7 -18z
m1914 -81 c73 -42 144 -84 158 -94 70 -49 396 -221 515 -272 82 -35 107 -57
99 -87 -7 -23 -7 -23 -20 8 -7 17 -19 31 -27 31 -8 0 -20 7 -27 14 -6 8 -33
22 -58 31 -26 8 -67 29 -91 45 -25 17 -56 33 -70 37 -15 3 -33 11 -41 19 -17
14 -293 154 -305 154 -10 0 -59 40 -49 40 5 1 -18 12 -50 25 -33 14 -67 31
-75 38 -9 8 -41 29 -71 47 -30 18 -58 38 -62 44 -15 22 -7 28 16 13 13 -9 84
-51 158 -93z m-3369 -303 c-1 -1 -6 0 -12 4 -12 7 -15 177 -3 189 6 6 21 -181
15 -193z m65 98 c-1 -49 -7 -89 -12 -89 -4 0 -6 31 -2 70 5 68 1 100 -14 100
-4 0 -5 -21 -3 -47 3 -27 0 -66 -5 -88 -9 -35 -10 -30 -11 52 -1 92 5 107 37
95 10 -4 13 -27 10 -93z m41 59 c-4 -24 -9 -68 -10 -98 -2 -42 -3 -47 -6 -20
-6 45 6 160 16 160 5 0 5 -19 0 -42z m98 -35 c-2 -16 -4 -3 -4 27 0 30 2 43 4
28 2 -16 2 -40 0 -55z m-47 -33 l-8 -95 1 80 c0 74 5 120 12 113 2 -2 0 -46
-5 -98z m97 78 c-3 -8 -6 -5 -6 6 -1 11 2 17 5 13 3 -3 4 -12 1 -19z m670 -65
c-2 -16 -4 -3 -4 27 0 30 2 43 4 28 2 -16 2 -40 0 -55z m40 55 c-3 -8 -6 -5
-6 6 -1 11 2 17 5 13 3 -3 4 -12 1 -19z m-840 -35 c-3 -10 -5 -2 -5 17 0 19 2
27 5 18 2 -10 2 -26 0 -35z m-165 -53 c-1 -29 -3 -55 -6 -58 -3 -3 -6 23 -6
58 0 35 3 61 6 57 3 -3 6 -29 6 -57z m155 -47 c-2 -16 -4 -5 -4 22 0 28 2 40
4 28 2 -13 2 -35 0 -50z m80 -5 c-2 -13 -4 -5 -4 17 -1 22 1 32 4 23 2 -10 2
-28 0 -40z m700 0 c-3 -8 -6 -5 -6 6 -1 11 2 17 5 13 3 -3 4 -12 1 -19z m3199
-64 c22 -9 34 -19 28 -21 -7 -2 -27 5 -45 16 -41 25 -35 27 17 5z m-3318 -141
c17 -56 0 -253 -21 -253 -7 0 -5 -5 3 -10 11 -7 6 -10 -20 -10 -27 0 -32 3
-20 11 11 8 8 9 -15 5 -16 -4 -25 -3 -20 1 6 5 10 59 11 123 0 93 4 121 18
143 26 39 51 35 64 -10z m-331 -189 c-3 -3 -12 -4 -19 -1 -8 3 -5 6 6 6 11 1
17 -2 13 -5z m53 -50 c0 -8 -4 -13 -9 -10 -4 3 -18 -6 -31 -19 -13 -13 -28
-22 -33 -18 -6 4 -8 0 -5 -9 4 -8 2 -21 -4 -29 -8 -11 -9 -10 -4 4 4 11 2 16
-5 11 -6 -3 -9 -15 -6 -25 3 -10 1 -22 -4 -25 -5 -3 -9 -15 -9 -27 0 -18 -2
-19 -10 -7 -5 8 -10 10 -10 4 0 -6 -7 -11 -15 -11 -11 0 -6 14 16 56 36 65 50
84 57 76 8 -8 42 26 36 36 -3 5 4 9 15 9 12 0 21 -7 21 -16z m42 -28 c-3 -13
-1 -17 6 -12 7 4 12 5 12 2 0 -2 -13 -11 -30 -20 -27 -13 -44 -6 -20 9 6 4 8
14 5 24 -3 12 1 17 14 17 13 0 17 -6 13 -20z m-32 -4 c0 -5 -8 -17 -18 -28 -9
-10 -26 -39 -36 -64 -28 -67 -56 -126 -56 -118 0 10 26 108 36 133 17 47 74
106 74 77z m1050 -37 c5 -12 5 -37 0 -56 -7 -28 -8 -30 -9 -9 -1 14 -8 36 -15
49 -8 14 -11 32 -8 40 4 10 1 12 -8 6 -9 -5 -11 -4 -6 4 10 15 34 -3 46 -34z
m-762 -35 c-26 -21 -41 -46 -55 -87 -17 -56 -18 -57 -21 -24 -8 84 25 141 81
141 l32 0 -37 -30z m-238 -129 c-11 -43 -24 -52 -34 -25 -3 8 -2 12 4 9 13 -8
13 1 0 26 -7 13 -7 19 0 19 5 0 10 10 10 22 0 20 1 21 16 7 13 -14 14 -23 4
-58z m553 -81 c26 -40 91 -94 273 -226 72 -52 143 -108 158 -123 l27 -28 -20
-25 c-43 -55 -39 -73 31 -143 77 -77 106 -83 161 -35 19 17 38 30 42 30 3 0
34 -20 68 -44 68 -48 191 -124 617 -382 415 -250 533 -324 550 -340 13 -13 9
-15 -35 -10 -84 9 -384 16 -726 17 -179 1 -400 5 -490 10 -571 31 -720 40
-766 45 -51 5 -52 6 -42 31 10 26 2 123 -10 123 -4 0 -13 40 -20 89 -7 49 -15
92 -19 95 -3 4 -8 19 -9 34 -2 15 -8 38 -13 52 -5 14 -11 48 -14 75 -2 28 -9
64 -14 80 -5 17 -7 36 -5 43 3 7 0 19 -7 27 -13 16 15 21 180 30 83 4 111 9
132 25 15 11 33 20 40 20 33 0 58 31 58 70 0 21 5 42 11 45 6 4 8 14 5 22 -3
8 -1 11 4 8 15 -9 12 11 -3 23 -14 12 -79 28 -149 37 l-48 6 0 169 c0 93 -4
181 -10 197 -9 26 -9 27 5 8 9 -11 26 -36 38 -55z m-607 -38 c-17 -16 -18 -16
-5 5 7 12 15 20 18 17 3 -2 -3 -12 -13 -22z m278 -74 c9 -36 7 -85 -6 -113
-12 -26 -28 -34 -28 -12 0 9 -3 8 -9 -2 -6 -10 -12 -3 -21 24 -13 39 -8 89 11
112 18 20 46 16 53 -9z m-463 -125 c-12 -20 -14 -14 -5 12 4 9 9 14 11 11 3
-2 0 -13 -6 -23z m661 -170 c-40 -2 -103 -2 -140 0 -37 2 -4 3 73 3 77 0 107
-2 67 -3z m83 -43 c-43 -11 -285 -11 -260 0 11 5 81 8 155 8 83 0 123 -3 105
-8z m-102 -107 c-18 -2 -48 -2 -65 0 -18 2 -4 4 32 4 36 0 50 -2 33 -4z m-810
-76 c3 -7 -3 -13 -14 -13 -13 0 -15 3 -7 13 6 7 12 13 13 13 2 0 5 -6 8 -13z
m83 -46 c-3 -5 3 -20 14 -34 11 -14 20 -36 20 -49 0 -14 3 -28 7 -32 5 -4 14
-31 21 -59 18 -74 38 -153 56 -222 8 -33 18 -77 21 -98 9 -58 49 -95 115 -107
52 -9 317 -30 375 -30 46 0 26 -32 -30 -49 -42 -13 -110 -14 -430 -10 -209 2
-449 4 -533 4 -83 0 -152 1 -152 1 0 1 36 48 80 104 44 56 77 107 73 113 -3 6
-1 7 5 3 13 -8 35 28 24 39 -4 5 -2 5 5 2 6 -4 20 7 32 26 11 17 57 82 101
142 45 61 104 145 133 187 29 43 56 78 60 78 5 0 6 -4 3 -9z m-175 -25 c-9
-11 -9 -15 1 -20 7 -3 3 -3 -9 -1 -17 5 -26 -2 -44 -35 -12 -22 -27 -40 -33
-40 -6 0 -4 -5 4 -11 12 -9 12 -10 1 -7 -8 3 -16 9 -18 15 -4 11 88 113 102
113 4 0 2 -6 -4 -14z m426 -62 c-3 -3 -12 -4 -19 -1 -8 3 -5 6 6 6 11 1 17 -2
13 -5z m-10 -56 c-3 -7 -5 -2 -5 12 0 14 2 19 5 13 2 -7 2 -19 0 -25z m-606
-61 c-10 -9 -11 -8 -5 6 3 10 9 15 12 12 3 -3 0 -11 -7 -18z m-171 -323 c0 -8
-5 -12 -10 -9 -6 4 -8 11 -5 16 9 14 15 11 15 -7z m75 -4 c-3 -5 -12 -10 -18
-10 -7 0 -6 4 3 10 19 12 23 12 15 0z m-112 -54 c-10 -13 -20 -20 -21 -15 -5
12 17 39 30 39 5 0 1 -11 -9 -24z m1504 -158 c51 -16 64 -28 32 -28 -19 0 -21
-2 -9 -10 8 -5 12 -10 9 -10 -3 0 -52 -6 -110 -14 -57 -8 -111 -14 -119 -14
-23 0 -371 -20 -635 -37 -132 -8 -348 -25 -480 -36 -299 -26 -315 -27 -307
-14 3 6 35 46 69 91 l64 81 377 -3 c207 -1 418 1 467 5 153 12 594 5 642 -11z"/>
<path d="M2893 5043 c9 -2 23 -2 30 0 6 3 -1 5 -18 5 -16 0 -22 -2 -12 -5z"/>
<path d="M5237 6693 c-13 -13 -7 -32 8 -27 8 4 15 12 15 20 0 15 -12 19 -23 7z"/>
<path d="M6130 4153 c0 -4 5 -15 10 -23 8 -13 10 -13 10 2 0 9 -4 20 -10 23
-5 3 -10 3 -10 -2z"/>
<path d="M6141 3814 c0 -11 3 -14 6 -6 3 7 2 16 -1 19 -3 4 -6 -2 -5 -13z"/>
<path d="M6980 8013 c-37 -38 -38 -40 -44 -133 -4 -52 -6 -716 -4 -1475 3
-1264 4 -1383 20 -1415 23 -50 69 -90 114 -101 45 -10 575 -45 835 -55 203 -8
237 -4 283 36 18 16 37 26 41 22 5 -4 5 -2 2 4 -4 7 0 25 8 40 29 56 37 135
33 323 l-3 186 23 -70 c59 -175 191 -263 373 -247 69 6 216 64 260 103 l34 31
-32 -22 c-18 -12 -50 -24 -70 -27 -38 -5 -38 -5 17 24 125 68 186 274 130 439
-38 111 -82 158 -155 168 -29 5 -35 4 -20 -3 16 -8 12 -10 -22 -10 -55 -1
-111 -49 -142 -120 -25 -58 -29 -80 -30 -143 -1 -34 -5 -48 -15 -48 -11 0 -13
11 -10 45 3 28 0 45 -7 45 -6 0 -3 8 7 18 16 16 16 17 1 20 -21 4 -22 22 -2
22 24 0 17 28 -7 33 -21 4 -20 4 3 6 22 1 39 17 39 36 0 2 -24 6 -52 8 l-53 3
52 2 c40 2 55 7 62 21 6 10 7 21 4 25 -3 3 -1 6 6 6 7 0 9 5 6 10 -3 6 2 11
12 11 10 1 5 5 -12 9 l-30 8 33 1 c17 0 31 4 31 9 -3 19 3 22 22 11 13 -6 19
-7 15 -1 -3 6 -1 12 6 15 7 2 3 2 -9 0 -13 -2 -23 0 -23 5 0 16 -202 6 -242
-11 -77 -32 -160 -137 -193 -241 l-13 -41 -1 75 c-2 82 -12 103 -53 114 -18 4
-28 13 -28 24 0 10 -5 23 -12 30 -9 9 -9 12 1 12 7 0 9 5 4 13 -4 6 -9 145
-10 307 -2 162 -3 300 -3 305 0 6 2 24 6 41 4 21 1 36 -10 47 -15 15 -15 17 4
27 24 13 52 54 54 78 1 9 21 55 44 101 24 46 41 85 39 88 -3 2 -23 -31 -45
-74 -23 -43 -56 -96 -75 -117 l-33 -39 -22 34 c-12 19 -28 44 -37 55 -15 20
-14 23 1 38 27 27 66 16 87 -24 15 -28 18 -30 13 -9 -4 17 2 36 19 61 31 45
75 145 75 169 0 26 11 29 46 10 l31 -17 -23 -30 c-29 -36 -30 -44 -3 -44 14 0
24 10 32 30 10 27 16 30 55 30 58 0 161 56 176 96 3 9 -7 3 -23 -13 -41 -41
-103 -67 -138 -58 l-28 8 36 11 c36 11 75 34 100 58 31 29 67 48 71 36 3 -7 7
-5 11 6 4 11 3 15 -4 10 -7 -4 -10 -1 -7 7 3 8 10 13 16 12 8 -2 9 5 2 22 -8
20 -6 25 6 25 9 0 12 -5 8 -12 -4 -7 -3 -8 4 -4 7 4 12 13 12 19 0 7 19 19 43
27 51 18 77 62 77 133 0 47 -22 111 -42 123 -5 3 0 -11 11 -32 27 -51 27 -145
0 -128 -5 3 -9 -1 -9 -8 0 -9 -3 -9 -10 2 -6 10 -10 11 -10 3 0 -39 -75 31
-86 79 -5 27 -7 28 -19 11 -11 -14 -16 -16 -26 -5 -11 10 -11 12 0 12 7 0 19
7 28 15 13 14 12 15 -15 13 -17 -1 -28 -6 -26 -10 3 -4 -11 -8 -30 -8 -20 0
-36 5 -36 10 0 17 -43 29 -58 17 -11 -8 -11 -5 -1 16 12 27 24 32 67 28 25 -2
30 14 6 23 -36 14 -63 5 -88 -27 -15 -19 -26 -39 -26 -45 0 -6 -5 -23 -11 -39
-6 -15 -13 -40 -14 -54 -1 -14 -8 -35 -14 -45 -11 -17 -12 -16 -6 9 7 33 -17
71 -85 134 -130 122 -115 110 -186 150 -91 49 -343 65 -471 29 -27 -8 -100
-16 -163 -19 -106 -5 -112 -4 -70 8 37 11 40 13 17 14 -16 1 -26 5 -22 11 4 6
-5 10 -19 10 -26 0 -38 -19 -13 -21 6 0 -10 -7 -38 -14 -27 -8 -51 -12 -54
-10 -2 3 2 5 10 5 9 1 7 5 -6 13 -11 7 -20 18 -21 25 -1 6 -2 19 -2 27 -3 28
-39 17 -51 -15 -11 -33 -39 -66 -47 -57 -3 3 -6 19 -6 36 -1 17 -5 31 -10 31
-4 0 -8 7 -8 15 0 8 -7 15 -17 15 -22 0 -8 13 19 17 12 2 25 8 29 15 4 6 12 7
18 4 6 -4 9 -11 6 -16 -6 -10 29 -20 73 -20 36 0 35 -2 32 90 -2 73 -12 89
-70 115 -51 23 -52 40 -2 30 20 -4 62 -9 92 -10 30 -2 67 -8 82 -14 15 -5 30
-7 32 -2 10 16 104 -11 128 -36 19 -21 23 -34 21 -81 -2 -31 -5 -64 -8 -73 -5
-14 2 -18 39 -21 26 -2 53 2 63 9 9 7 11 13 5 13 -7 0 -12 15 -12 38 0 68 -9
82 -68 108 -30 13 -52 27 -49 30 8 9 106 -6 113 -17 3 -5 10 -9 15 -9 6 0 7 5
4 10 -8 12 7 12 65 -1 52 -11 146 -20 209 -19 64 1 120 -40 121 -87 0 -32 -8
-29 -50 16 -20 21 -45 41 -56 45 -17 5 -19 2 -16 -42 2 -35 0 -43 -7 -32 -9
12 -11 11 -11 -7 0 -43 10 -53 56 -53 28 0 44 4 44 13 0 7 3 8 8 2 4 -5 23
-19 42 -29 19 -10 45 -28 56 -38 17 -15 23 -16 27 -6 3 8 6 5 6 -7 0 -12 38
-56 93 -108 83 -78 94 -86 106 -70 6 9 12 23 12 31 0 9 11 30 26 49 21 28 31
33 68 33 29 0 52 -8 76 -25 37 -28 52 -32 45 -12 -10 24 -88 57 -129 53 -31
-3 -47 -13 -77 -48 -22 -23 -39 -49 -39 -55 0 -17 -15 -16 -30 2 -24 29 57
125 120 143 26 8 29 10 12 11 -27 1 -73 -21 -91 -43 -39 -47 -158 32 -130 86
5 10 5 19 0 22 -15 10 -42 -5 -51 -28 -5 -14 -8 -1 -10 44 -4 120 -6 137 -26
171 -11 18 -33 41 -49 51 -41 23 -504 108 -594 108 -17 0 -31 4 -31 9 0 5 -10
9 -22 9 -13 0 -66 2 -118 5 -78 5 -85 5 -40 -3 30 -5 69 -14 85 -20 45 -15
-107 -2 -170 15 -27 7 -78 16 -113 20 -63 6 -63 6 -102 -32z m105 7 c-24 -6
-26 -8 -7 -9 27 -1 28 -13 5 -48 -16 -25 -18 -66 -21 -438 -1 -225 -3 -551 -5
-724 l-2 -314 -28 -4 c-25 -3 -28 -1 -25 19 2 15 9 22 21 20 9 -2 17 2 17 8 0
5 -8 10 -17 10 -15 0 -16 2 -3 10 8 5 10 10 4 10 -5 0 -11 15 -12 33 -2 43 -6
58 -20 85 -11 20 -10 22 8 22 15 0 19 4 13 13 -4 6 -8 57 -8 112 0 69 -4 100
-12 100 -6 0 -15 3 -19 8 -4 4 10 8 32 8 22 1 29 4 17 6 -21 4 -22 9 -18 79 2
52 0 74 -8 74 -7 0 -6 4 3 10 12 8 12 10 -5 10 -17 0 -18 2 -5 11 11 7 12 12
3 15 -8 4 -5 12 8 25 15 15 17 24 10 33 -6 7 -8 16 -4 20 4 4 1 11 -7 16 -8 6
-10 10 -4 10 19 0 14 50 -5 51 -10 0 -11 2 -3 6 6 2 12 11 12 18 0 7 6 16 13
18 8 4 8 8 2 14 -12 9 -14 118 -3 129 4 4 4 12 -1 18 -10 12 -11 16 -11 46 0
11 -7 20 -15 20 -12 0 -15 14 -17 63 -9 320 -8 332 23 371 18 22 28 26 72 25
45 -1 48 -2 22 -9z m50 -124 c39 -17 48 -39 43 -112 -4 -62 -21 -60 -28 3 -6
55 -17 76 -32 67 -7 -4 -8 -2 -4 4 3 6 -3 16 -14 22 -21 11 -27 30 -10 30 6 0
26 -6 45 -14z m-150 -366 c3 -5 1 -10 -4 -10 -6 0 -11 5 -11 10 0 6 2 10 4 10
3 0 8 -4 11 -10z m194 -532 c1 -146 -2 -273 -5 -282 -5 -14 -8 -14 -21 0 -13
13 -15 54 -10 302 5 290 14 384 28 292 4 -25 8 -165 8 -312z m1431 172 c0 -11
-15 -36 -33 -56 l-32 -36 -45 40 -45 39 50 16 c74 22 105 21 105 -3z m-420
-52 c12 -22 37 -56 54 -76 17 -20 26 -33 19 -29 -6 4 -13 1 -16 -5 -8 -22 -39
4 -84 70 -23 35 -40 69 -37 76 9 24 40 6 64 -36z m-881 -193 c0 -107 -6 -116
-26 -45 -12 39 -15 152 -4 163 6 6 12 27 12 47 3 80 18 -56 18 -165z m131 35
c0 -108 -2 -120 -17 -120 -16 0 -18 10 -13 107 5 96 12 133 26 133 2 0 4 -54
4 -120z m946 71 c-3 -4 1 -8 9 -8 8 0 11 5 8 10 -4 6 3 8 18 4 13 -4 30 -7 37
-7 28 0 9 -28 -27 -38 -50 -16 -46 -17 -72 20 -13 17 -18 28 -12 25 7 -4 14
-3 18 3 4 6 11 8 16 4 5 -3 7 -9 5 -13z m-157 -124 c-27 -67 -39 -90 -47 -83
-7 8 -9 135 -2 131 3 -2 6 5 6 15 0 16 -3 17 -16 7 -13 -10 -13 -10 -2 5 8 9
10 23 6 29 -4 7 11 -2 34 -20 l41 -33 -20 -51z m-539 18 c0 -83 0 -85 24 -85
30 0 43 -17 19 -23 -10 -2 -1 -4 19 -4 29 -1 35 2 31 15 -4 10 -2 13 5 8 13
-8 16 9 12 64 -1 19 1 32 4 29 8 -7 14 -47 15 -90 1 -33 4 -37 34 -44 17 -5
37 -9 42 -9 6 -1 15 -5 22 -9 9 -6 11 12 8 70 -3 60 -2 71 6 48 5 -16 8 -51 7
-77 -1 -35 4 -54 18 -70 44 -51 47 -61 6 -25 -39 35 -57 42 -91 38 -7 -2 -10
2 -7 7 3 6 -1 12 -9 15 -9 4 -12 1 -9 -8 4 -10 -3 -13 -28 -12 -38 1 -71 -14
-110 -51 -16 -14 -28 -21 -28 -16 0 6 25 29 56 52 65 48 60 56 -8 13 -44 -28
-107 -105 -109 -133 0 -10 -2 -10 -6 -1 -2 7 5 27 18 44 23 33 23 33 -23 60
-13 7 -18 6 -18 -2 0 -6 9 -13 20 -16 27 -7 25 -14 -10 -48 -26 -25 -30 -26
-36 -10 -4 10 -2 26 5 37 20 31 5 32 -17 1 -51 -73 -65 -132 -64 -268 l0 -80
-10 79 c-6 52 -6 92 0 118 8 32 8 38 -3 34 -11 -4 -11 3 -1 37 7 23 18 41 24
40 6 -2 9 3 6 11 -9 25 86 115 151 142 56 24 57 25 21 20 -23 -3 -63 -22 -94
-42 -86 -60 -143 -157 -167 -287 -8 -44 -13 -60 -14 -40 -3 84 51 228 108 290
36 40 119 93 144 93 16 0 18 5 12 31 -9 38 3 139 16 139 5 0 9 -38 9 -85z
m-120 -12 c0 -29 -2 -53 -4 -53 -27 0 -36 16 -36 64 0 36 3 47 10 36 8 -12 10
-10 10 10 0 20 2 22 10 10 5 -8 10 -39 10 -67z m487 -55 c-2 -24 -4 -7 -4 37
0 44 2 63 4 43 2 -21 2 -57 0 -80z m7 -62 c-6 -16 -34 -30 -34 -18 0 5 5 13
12 20 16 16 29 15 22 -2z m-186 -53 c-10 -2 -26 -2 -35 0 -10 3 -2 5 17 5 19
0 27 -2 18 -5z m-99 -17 c-2 -2 -15 -9 -29 -15 -24 -11 -24 -11 -6 3 16 13 49
24 35 12z m166 -29 c51 -28 126 -122 147 -184 26 -75 24 -225 -3 -299 -30 -80
-95 -157 -149 -173 -68 -20 -150 11 -231 89 -77 75 -108 268 -64 409 14 46 32
77 65 113 73 80 146 93 235 45z m-532 16 c-7 -2 -19 -2 -25 0 -7 3 -2 5 12 5
14 0 19 -2 13 -5z m786 -60 c-21 -27 -63 -63 -73 -63 -8 0 74 79 83 80 2 0 -3
-8 -10 -17z m-629 -23 c8 -15 7 -18 -2 -15 -19 7 -39 -40 -24 -56 8 -9 6 -9
-11 0 -18 9 -21 15 -12 34 5 12 12 30 15 40 8 23 21 22 34 -3z m510 -11 c15
-28 5 -23 -15 7 -9 15 -12 23 -6 20 6 -4 16 -16 21 -27z m-677 4 c-7 -2 -19
-2 -25 0 -7 3 -2 5 12 5 14 0 19 -2 13 -5z m172 -33 c3 -5 1 -10 -4 -10 -6 0
-11 5 -11 10 0 6 2 10 4 10 3 0 8 -4 11 -10z m-27 -60 c13 -12 22 -16 22 -9 0
7 3 10 6 6 3 -3 2 -11 -3 -19 -6 -10 -15 -7 -37 15 -16 15 -24 27 -19 27 5 0
19 -9 31 -20z m-151 -6 c-3 -3 -12 -4 -19 -1 -8 3 -5 6 6 6 11 1 17 -2 13 -5z
m125 -8 c7 4 8 2 4 -4 -4 -7 0 -12 10 -12 10 0 15 -3 11 -6 -11 -11 -47 7 -46
24 0 11 2 12 6 4 2 -6 10 -9 15 -6z m-492 -56 c-8 -5 -17 -7 -19 -4 -3 3 1 9
9 14 8 5 17 7 19 4 3 -3 -1 -9 -9 -14z m503 -17 c-7 -2 -19 -2 -25 0 -7 3 -2
5 12 5 14 0 19 -2 13 -5z m-493 -11 c0 -4 -9 -8 -20 -9 -11 -1 -18 2 -15 8 7
11 35 12 35 1z m20 -51 c0 -53 -2 -59 -23 -63 -18 -4 -23 0 -25 20 -2 21 0 23
13 12 14 -11 15 -8 11 24 -3 21 -1 34 5 31 5 -4 9 3 9 14 0 12 2 21 5 21 3 0
5 -26 5 -59z m473 22 c-7 -2 -19 -2 -25 0 -7 3 -2 5 12 5 14 0 19 -2 13 -5z
m10 -20 c-7 -2 -19 -2 -25 0 -7 3 -2 5 12 5 14 0 19 -2 13 -5z m-3 -57 c0 -2
-7 -7 -16 -10 -8 -3 -12 -2 -9 4 6 10 25 14 25 6z m-43 -58 c-3 -7 -5 -2 -5
12 0 14 2 19 5 13 2 -7 2 -19 0 -25z m-447 -31 c0 -13 -3 -26 -6 -30 -10 -10
-34 4 -34 20 0 9 6 13 15 9 8 -3 15 -1 15 4 0 5 -8 11 -17 13 -14 4 -12 5 5 6
17 1 22 -4 22 -22z m9 -579 c2 -464 7 -548 33 -564 6 -4 92 -11 192 -15 99 -5
298 -15 441 -24 300 -17 351 -18 422 -10 43 4 52 3 47 -9 -6 -15 -35 -25 -74
-26 -25 -1 -25 -1 -5 -16 21 -16 -42 -16 -420 0 l-100 4 95 -8 c52 -4 106 -13
120 -19 33 -15 -101 -7 -215 14 -44 8 -157 19 -250 25 -154 9 -256 21 -309 37
-14 4 -15 7 -6 13 9 6 7 10 -8 14 -18 6 -20 11 -12 32 6 15 6 23 1 19 -5 -3
-13 0 -17 6 -3 6 -1 15 7 19 10 7 10 11 -1 24 -15 19 -13 21 20 35 l25 10 -28
0 c-25 1 -26 3 -17 21 6 11 17 20 24 20 8 0 16 7 19 14 4 10 1 13 -9 9 -7 -3
-14 -1 -14 5 0 6 6 13 13 15 7 3 5 6 -5 6 -21 1 -24 17 -4 24 17 7 11 178 -7
189 -9 5 -9 8 -1 8 13 0 25 48 14 55 -4 2 -7 35 -7 72 -1 37 -5 85 -11 106 -9
33 -9 37 9 37 10 0 19 5 19 10 0 6 -4 10 -10 10 -5 0 -10 20 -10 45 0 25 3 45
8 45 4 0 7 33 8 73 0 68 10 157 17 157 2 0 5 -217 6 -482z m881 -73 c0 -319
-2 -365 -15 -365 -10 0 -15 10 -16 28 0 15 -3 172 -5 349 -5 260 -3 325 8 337
7 8 16 15 21 16 4 0 7 -164 7 -365z m119 183 c-2 -108 -4 -135 -8 -93 -7 59
-2 245 5 245 2 0 3 -69 3 -152z m-239 -212 c0 -340 0 -344 -20 -339 -20 5 -20
12 -17 322 2 224 7 323 16 339 6 12 14 22 16 22 3 0 5 -155 5 -344z m-128 -13
c2 -181 3 -329 3 -330 0 -1 -8 5 -18 12 -17 12 -18 36 -18 311 0 286 3 334 21
334 5 0 10 -147 12 -327z m-512 1 c0 -276 -4 -318 -26 -282 -9 15 -8 423 2
520 14 143 24 45 24 -238z m1453 279 c-13 -2 -33 -2 -45 0 -13 2 -3 4 22 4 25
0 35 -2 23 -4z m-1063 -307 c0 -275 -1 -294 -17 -292 -17 3 -18 22 -18 242 0
192 5 308 14 342 1 1 6 2 11 2 6 0 10 -105 10 -294z m-130 3 c1 -150 -1 -275
-5 -277 -19 -11 -24 20 -30 178 -4 112 -3 205 5 260 11 89 19 124 26 118 2 -2
4 -128 4 -279z m1183 274 c-13 -2 -33 -2 -45 0 -13 2 -3 4 22 4 25 0 35 -2 23
-4z m244 -13 c33 -20 57 -53 46 -64 -3 -3 -1 -6 5 -6 6 0 21 -32 33 -71 17
-57 20 -86 16 -152 -3 -45 -10 -99 -17 -120 -9 -32 -14 -36 -26 -26 -9 7 -14
8 -14 1 0 -6 -3 -19 -7 -29 -6 -16 -5 -17 13 -3 18 14 18 14 5 -3 -8 -9 -16
-15 -19 -13 -3 3 -17 -3 -32 -14 -34 -24 -42 -25 -83 -4 -51 27 -82 68 -78
103 2 7 -2 10 -7 7 -17 -10 -37 87 -36 174 3 149 56 231 154 239 8 0 29 -8 47
-19z m-1555 -368 c3 -163 2 -173 -15 -170 -17 3 -19 17 -18 225 0 159 3 233
13 260 13 35 13 34 15 -53 2 -49 4 -167 5 -262z m-145 -402 c39 -7 88 -13 107
-14 76 -6 43 -14 -56 -14 -62 0 -95 4 -83 9 15 6 10 8 -22 8 -23 1 -45 6 -48
12 -4 6 -14 8 -22 5 -8 -3 -11 -1 -8 4 3 5 18 7 33 5 15 -2 59 -9 99 -15z
m1017 -63 c-3 -8 -11 -14 -19 -15 -48 -4 -107 -3 -112 2 -4 3 11 7 33 7 31 1
89 11 101 18 1 0 0 -5 -3 -12z m-207 -3 c-3 -3 -12 -4 -19 -1 -8 3 -5 6 6 6
11 1 17 -2 13 -5z"/>
<path d="M6985 7790 c4 -6 11 -8 16 -5 14 9 11 15 -7 15 -8 0 -12 -5 -9 -10z"/>
<path d="M7655 6760 c-16 -11 -24 -20 -17 -20 8 0 25 9 39 20 33 26 17 26 -22
0z"/>
<path d="M7580 6678 c-12 -22 -12 -22 6 -6 10 10 15 20 12 24 -4 3 -12 -5 -18
-18z"/>
<path d="M7481 6604 c0 -11 3 -14 6 -6 3 7 2 16 -1 19 -3 4 -6 -2 -5 -13z"/>
<path d="M7786 6535 c-4 -11 -2 -14 7 -9 6 5 -3 -7 -21 -25 -61 -61 -80 -157
-47 -238 30 -75 132 -108 198 -65 55 37 77 80 77 150 0 112 -45 161 -145 162
-23 0 -27 3 -15 10 11 7 11 10 2 10 -8 0 -10 5 -6 13 6 9 5 9 -7 0 -11 -9 -19
-9 -26 -2 -7 7 -12 5 -17 -6z m111 -57 c51 -56 70 -149 37 -182 -8 -9 -12 -22
-8 -28 4 -7 -3 -3 -15 10 -18 18 -21 29 -15 57 7 37 -7 65 -32 65 -9 0 -14
-11 -14 -30 0 -16 -5 -30 -11 -30 -7 0 -9 10 -5 25 7 28 -5 33 -27 10 -13 -12
-16 -12 -21 8 -10 39 -6 64 15 91 26 33 68 35 96 4z"/>
<path d="M7870 6530 c0 -6 7 -10 15 -10 8 0 15 2 15 4 0 2 -7 6 -15 10 -8 3
-15 1 -15 -4z"/>
<path d="M8828 5773 c6 -2 18 -2 25 0 6 3 1 5 -13 5 -14 0 -19 -2 -12 -5z"/>
<path d="M8882 5740 c7 -11 16 -20 21 -20 4 0 3 9 -3 20 -6 11 -15 20 -20 20
-6 0 -5 -9 2 -20z"/>
<path d="M8740 5642 c-60 -60 -66 -150 -13 -212 20 -25 32 -30 67 -30 35 0 48
6 73 33 49 52 63 79 63 120 0 58 -26 98 -75 117 -48 18 -76 12 -115 -28z m75
-31 c14 -28 12 -61 -5 -61 -4 0 -10 7 -14 15 -7 19 -23 19 -43 0 -24 -24 -25
-12 -3 33 24 49 44 53 65 13z m-19 -76 c34 -14 35 -16 32 -62 -3 -43 -6 -48
-29 -51 -48 -6 -84 57 -59 104 16 28 12 28 56 9z"/>
<path d="M6018 8033 c12 -2 32 -2 45 0 12 2 2 4 -23 4 -25 0 -35 -2 -22 -4z"/>
<path d="M6390 7941 c0 -5 7 -12 16 -15 8 -3 13 -10 10 -15 -4 -5 -1 -11 5
-13 20 -7 23 -86 5 -132 -18 -46 -46 -71 -87 -78 -22 -4 -21 -5 15 -21 21 -9
46 -17 55 -17 9 0 28 -6 42 -14 26 -13 27 -13 33 23 10 64 6 181 -8 214 -7 18
-22 39 -32 48 -24 20 -54 31 -54 20z"/>
<path d="M3482 7914 c10 -10 20 -16 22 -13 3 3 -5 11 -17 18 -21 13 -21 12 -5
-5z"/>
<path d="M3158 7898 c6 -6 18 -8 28 -6 14 3 12 5 -9 10 -19 3 -25 2 -19 -4z"/>
<path d="M3738 7903 c7 -3 16 -2 19 1 4 3 -2 6 -13 5 -11 0 -14 -3 -6 -6z"/>
<path d="M6360 7900 c0 -7 -13 -28 -30 -47 -34 -38 -36 -46 -16 -62 20 -17 46
12 46 50 0 34 22 39 54 12 16 -14 15 -10 -5 16 -27 37 -49 50 -49 31z"/>
<path d="M3833 7883 c15 -2 37 -2 50 0 12 2 0 4 -28 4 -27 0 -38 -2 -22 -4z"/>
<path d="M3228 7873 c7 -3 16 -2 19 1 4 3 -2 6 -13 5 -11 0 -14 -3 -6 -6z"/>
<path d="M3683 7873 c9 -2 25 -2 35 0 9 3 1 5 -18 5 -19 0 -27 -2 -17 -5z"/>
<path d="M3863 7863 c15 -2 37 -2 50 0 12 2 0 4 -28 4 -27 0 -38 -2 -22 -4z"/>
<path d="M3698 7853 c12 -2 30 -2 40 0 9 3 -1 5 -23 4 -22 0 -30 -2 -17 -4z"/>
<path d="M7310 7759 l0 -100 48 3 47 3 5 69 c4 60 2 72 -14 88 -10 9 -23 15
-27 12 -4 -2 -10 0 -14 6 -4 6 -11 8 -16 5 -5 -4 -9 -1 -9 4 0 6 -4 11 -10 11
-6 0 -10 -40 -10 -101z"/>
<path d="M3873 7843 c15 -2 37 -2 50 0 12 2 0 4 -28 4 -27 0 -38 -2 -22 -4z"/>
<path d="M7440 7754 l0 -94 38 0 c42 0 83 22 64 34 -7 4 -12 26 -12 49 0 52
-7 62 -53 86 l-37 19 0 -94z"/>
<path d="M3361 7837 c2 -1 13 -9 24 -17 19 -14 19 -14 6 3 -7 9 -18 17 -24 17
-6 0 -8 -1 -6 -3z"/>
<path d="M3733 7833 c20 -2 54 -2 75 0 20 2 3 4 -38 4 -41 0 -58 -2 -37 -4z"/>
<path d="M4615 7808 c-60 -66 -60 -66 -12 -66 l42 1 0 49 c0 26 0 48 0 48 0 0
-14 -15 -30 -32z"/>
<path d="M3928 7823 c6 -2 18 -2 25 0 6 3 1 5 -13 5 -14 0 -19 -2 -12 -5z"/>
<path d="M3763 7813 c26 -2 67 -2 90 0 23 2 2 3 -48 3 -49 0 -68 -1 -42 -3z"/>
<path d="M7689 7758 c0 -35 -2 -73 -5 -85 -3 -21 0 -23 34 -23 56 0 82 10 82
31 0 11 -4 19 -10 19 -5 0 -10 12 -10 26 0 26 -57 94 -79 94 -7 0 -11 -24 -12
-62z"/>
<path d="M7808 7740 c2 -41 7 -78 10 -81 4 -3 28 -4 54 -1 l46 4 -5 36 c-7 44
-36 81 -78 102 l-30 15 3 -75z"/>
<path d="M3958 7803 c7 -3 16 -2 19 1 4 3 -2 6 -13 5 -11 0 -14 -3 -6 -6z"/>
<path d="M4483 7803 c-7 -2 -13 -18 -13 -34 0 -24 4 -29 25 -29 26 0 62 41 50
60 -6 10 -40 12 -62 3z"/>
<path d="M3773 7793 c26 -2 67 -2 90 0 23 2 2 3 -48 3 -49 0 -68 -1 -42 -3z"/>
<path d="M4990 7791 c-19 -4 -42 -6 -50 -6 -8 0 -18 -4 -22 -10 -5 -6 -8 -6
-8 2 0 13 -10 9 -120 -41 l-35 -15 55 6 c30 3 93 18 139 34 108 37 119 45 41
30z"/>
<path d="M3958 7783 c12 -2 32 -2 45 0 12 2 2 4 -23 4 -25 0 -35 -2 -22 -4z"/>
<path d="M3778 7773 c23 -2 61 -2 85 0 23 2 4 4 -43 4 -47 0 -66 -2 -42 -4z"/>
<path d="M3968 7763 c18 -2 45 -2 60 0 15 2 0 4 -33 4 -33 0 -45 -2 -27 -4z"/>
<path d="M3798 7753 c23 -2 61 -2 85 0 23 2 4 4 -43 4 -47 0 -66 -2 -42 -4z"/>
<path d="M4319 7746 c7 -8 21 -18 32 -21 11 -4 16 -11 13 -17 -4 -7 -2 -8 4
-4 17 10 16 12 -25 36 -23 13 -32 16 -24 6z"/>
<path d="M3970 7744 c36 -7 139 -10 128 -2 -7 4 -42 7 -78 7 -36 -1 -58 -3
-50 -5z"/>
<path d="M3480 7736 c0 -2 8 -10 18 -17 15 -13 16 -12 3 4 -13 16 -21 21 -21
13z"/>
<path d="M3803 7733 c26 -2 68 -2 95 0 26 2 4 3 -48 3 -52 0 -74 -1 -47 -3z"/>
<path d="M3565 7710 c10 -11 20 -20 23 -20 3 0 -3 9 -13 20 -10 11 -20 20 -23
20 -3 0 3 -9 13 -20z"/>
<path d="M3875 7721 c-97 -6 -94 -7 77 -11 97 -3 174 -2 170 2 -12 11 -140 16
-247 9z"/>
<path d="M3525 7680 c10 -11 20 -20 23 -20 3 0 -3 9 -13 20 -10 11 -20 20 -23
20 -3 0 3 -9 13 -20z"/>
<path d="M3817 7693 c18 -2 50 -2 70 0 21 2 7 4 -32 4 -38 0 -55 -2 -38 -4z"/>
<path d="M3931 7696 c2 -2 54 -6 114 -9 74 -4 97 -3 70 3 -39 9 -193 14 -184
6z"/>
<path d="M4888 7693 c6 -2 18 -2 25 0 6 3 1 5 -13 5 -14 0 -19 -2 -12 -5z"/>
<path d="M4948 7683 c7 -3 16 -2 19 1 4 3 -2 6 -13 5 -11 0 -14 -3 -6 -6z"/>
<path d="M3910 7670 l95 -6 -70 -3 c-38 -1 -79 -7 -90 -12 -15 -7 -10 -8 20
-5 22 3 92 9 155 13 l115 8 -70 6 c-38 4 -110 6 -160 6 l-90 -1 95 -6z"/>
<path d="M4155 7660 c3 -5 11 -10 16 -10 6 0 7 5 4 10 -3 6 -11 10 -16 10 -6
0 -7 -4 -4 -10z"/>
<path d="M5630 7651 c0 -11 10 -31 23 -44 18 -21 29 -24 60 -20 26 4 37 10 37
23 0 20 -26 45 -57 54 -33 10 -28 -1 10 -24 l32 -20 -32 0 c-26 0 -34 5 -39
25 -7 29 -34 34 -34 6z"/>
<path d="M3935 7630 c33 -5 76 -11 95 -14 28 -5 30 -4 10 3 l-25 9 28 1 c15 1
40 -5 55 -13 15 -7 45 -16 67 -19 l40 -6 -30 14 c-16 8 -37 15 -45 16 -8 0 -4
4 10 8 14 4 -40 8 -120 8 -111 0 -131 -2 -85 -7z"/>
<path d="M3620 7625 c0 -5 5 -17 10 -25 5 -8 10 -10 10 -5 0 6 -5 17 -10 25
-5 8 -10 11 -10 5z"/>
<path d="M3848 7623 c7 -3 16 -2 19 1 4 3 -2 6 -13 5 -11 0 -14 -3 -6 -6z"/>
<path d="M4170 7626 c0 -2 7 -6 15 -10 8 -3 15 -1 15 4 0 6 -7 10 -15 10 -8 0
-15 -2 -15 -4z"/>
<path d="M3985 7595 c61 -7 135 -16 165 -19 l55 -5 -54 14 c-30 7 -104 16
-165 19 l-111 5 110 -14z"/>
<path d="M7455 7600 l-20 -9 20 1 c11 0 34 4 50 8 l30 8 -30 0 c-16 0 -39 -3
-50 -8z"/>
<path d="M4210 7593 c0 -7 8 -16 17 -22 10 -5 16 -11 13 -13 -4 -4 -165 9
-330 26 -34 4 -49 2 -40 -3 8 -5 76 -14 150 -20 207 -18 240 -22 240 -30 0 -5
-19 -7 -42 -5 -93 8 -275 25 -308 30 -24 4 -30 2 -20 -4 20 -13 83 -21 232
-32 68 -5 133 -12 146 -16 12 -3 22 -2 22 4 0 14 -79 99 -80 85z"/>
<path d="M4540 7570 c8 -5 22 -9 30 -9 10 0 8 3 -5 9 -27 12 -43 12 -25 0z"/>
<path d="M5745 7550 c3 -5 13 -10 21 -10 8 0 14 5 14 10 0 6 -9 10 -21 10 -11
0 -17 -4 -14 -10z"/>
<path d="M4589 7520 c24 -11 46 -19 48 -16 5 5 -62 36 -79 36 -7 0 7 -9 31
-20z"/>
<path d="M3676 7517 c3 -10 9 -15 12 -12 3 3 0 11 -7 18 -10 9 -11 8 -5 -6z"/>
<path d="M3660 7465 c0 -2 9 -19 20 -37 23 -39 27 -30 5 12 -14 27 -25 38 -25
25z"/>
<path d="M5356 7461 c-3 -5 0 -11 7 -14 8 -3 14 1 14 9 0 16 -13 19 -21 5z"/>
<path d="M4630 7420 c-21 -7 -18 -8 17 -7 23 0 40 4 37 9 -6 9 -20 9 -54 -2z"/>
<path d="M6038 7403 c7 -3 16 -2 19 1 4 3 -2 6 -13 5 -11 0 -14 -3 -6 -6z"/>
<path d="M8350 7376 c0 -2 8 -10 18 -17 15 -13 16 -12 3 4 -13 16 -21 21 -21
13z"/>
<path d="M5181 7366 c2 -2 38 -6 79 -9 44 -3 65 -2 50 3 -24 8 -137 14 -129 6z"/>
<path d="M4959 7292 c5 -10 18 -25 28 -33 12 -10 11 -5 -6 19 -24 35 -38 43
-22 14z"/>
<path d="M6605 7170 c3 -5 18 -10 33 -10 21 0 24 2 12 10 -20 13 -53 13 -45 0z"/>
<path d="M6620 7140 c-13 -8 -12 -10 3 -10 9 0 17 5 17 10 0 12 -1 12 -20 0z"/>
<path d="M6625 7100 c-4 -6 -3 -16 3 -22 6 -6 12 -6 17 2 4 6 3 16 -3 22 -6 6
-12 6 -17 -2z"/>
<path d="M5010 6779 c60 -10 108 -9 55 2 -22 4 -53 8 -70 7 -22 0 -19 -3 15
-9z"/>
<path d="M5030 6520 c0 -4 23 -12 50 -17 28 -6 50 -7 50 -4 0 4 -22 12 -50 17
-27 6 -50 7 -50 4z"/>
<path d="M1520 5495 c0 -5 5 -17 10 -25 5 -8 10 -10 10 -5 0 6 -5 17 -10 25
-5 8 -10 11 -10 5z"/>
<path d="M1606 5277 c3 -10 9 -15 12 -12 3 3 0 11 -7 18 -10 9 -11 8 -5 -6z"/>
<path d="M1632 5223 c17 -41 30 -53 17 -15 -6 18 -15 35 -20 38 -5 3 -4 -7 3
-23z"/>
<path d="M1905 5150 c10 -11 20 -18 23 -16 5 6 -23 36 -34 36 -4 0 1 -9 11
-20z"/>
<path d="M3314 4948 l-19 -23 23 19 c12 11 22 21 22 23 0 8 -8 2 -26 -19z"/>
<path d="M2603 4693 c9 -2 23 -2 30 0 6 3 -1 5 -18 5 -16 0 -22 -2 -12 -5z"/>
<path d="M2688 4683 c7 -3 16 -2 19 1 4 3 -2 6 -13 5 -11 0 -14 -3 -6 -6z"/>
<path d="M4205 4601 c22 -11 47 -20 55 -20 17 0 -34 23 -71 33 -13 3 -6 -3 16
-13z"/>
<path d="M4288 4573 c6 -2 18 -2 25 0 6 3 1 5 -13 5 -14 0 -19 -2 -12 -5z"/>
<path d="M4410 4549 c61 -10 238 -11 244 -1 2 4 -62 8 -142 8 -96 0 -132 -2
-102 -7z"/>
<path d="M6125 4270 c47 -55 48 -56 37 -35 -6 11 -23 31 -39 45 l-28 25 30
-35z"/>
<path d="M5746 4165 c-9 -26 -7 -32 5 -12 6 10 9 21 6 23 -2 3 -7 -2 -11 -11z"/>
<path d="M4354 3962 c7 -46 35 -116 43 -109 6 7 -35 147 -44 147 -3 0 -3 -17
1 -38z"/>
<path d="M7810 3875 c0 -14 969 -460 978 -450 6 6 -500 251 -578 280 -19 7
-113 50 -208 94 -165 77 -192 88 -192 76z"/>
<path d="M4463 3530 c0 -25 2 -35 4 -22 2 12 2 32 0 45 -2 12 -4 2 -4 -23z"/>
<path d="M4523 3495 c0 -44 2 -61 4 -37 2 23 2 59 0 80 -2 20 -4 1 -4 -43z"/>
<path d="M4400 3031 c-14 -14 -37 -36 -50 -48 -30 -26 -46 -45 -47 -56 -2 -16
-46 -153 -59 -184 -8 -17 -14 -36 -14 -42 0 -18 -63 -72 -79 -69 -13 3 -16 20
-14 108 1 58 8 126 16 152 17 53 13 58 -49 58 -25 0 -42 -8 -60 -27 -23 -25
-25 -34 -22 -99 2 -40 10 -79 17 -88 23 -27 -9 -19 -35 9 -22 24 -30 51 -36
120 l-3 30 -18 -32 c-9 -18 -17 -41 -17 -53 0 -11 -4 -20 -9 -20 -5 0 -12 -8
-15 -17 -3 -10 -4 6 -2 34 4 67 42 124 100 153 49 23 85 25 138 6 38 -14 43
-12 61 20 5 8 -20 12 -83 13 -131 3 -175 -26 -231 -149 -14 -30 -14 -43 -4
-85 11 -42 11 -54 -3 -82 -9 -18 -19 -33 -24 -33 -4 0 -8 -6 -8 -13 0 -13
-171 -175 -235 -223 -104 -76 -222 -169 -289 -227 -54 -45 -82 -64 -87 -56 -5
9 -11 9 -22 -2 -8 -8 -40 -30 -70 -49 -31 -18 -54 -37 -51 -42 3 -4 -1 -8 -9
-8 -8 0 -18 -7 -21 -16 -4 -9 -13 -14 -22 -10 -8 3 -13 2 -11 -2 3 -4 -4 -16
-14 -26 -11 -11 -19 -14 -19 -8 0 9 -5 9 -20 0 -25 -16 -26 -30 -2 -21 9 3 14
3 11 -1 -4 -4 -19 -9 -35 -12 -30 -5 -107 -48 -100 -55 3 -2 -12 -16 -32 -29
-20 -14 -46 -34 -58 -45 -12 -12 -35 -27 -51 -35 -15 -8 -53 -31 -83 -51 -30
-20 -77 -50 -105 -67 -27 -17 -55 -36 -61 -41 -6 -4 -21 -12 -33 -16 -13 -4
-34 -16 -46 -27 -26 -22 -37 -29 -111 -70 -27 -14 -60 -36 -74 -47 -13 -12
-40 -32 -60 -43 -19 -12 -37 -24 -40 -28 -25 -28 -96 -61 -152 -72 -38 -7 -68
-16 -68 -21 0 -29 189 -36 970 -38 544 -2 577 -1 610 17 l35 18 -60 7 c-33 4
-268 9 -523 11 -415 3 -461 5 -441 18 32 22 342 200 514 295 470 259 648 364
747 441 57 45 81 53 94 33 3 -6 25 -19 47 -29 l41 -19 38 62 c21 34 38 68 38
74 0 7 15 34 34 60 19 27 64 107 101 178 80 152 101 181 121 160 8 -7 14 -21
14 -30 0 -22 -38 -111 -69 -160 -13 -22 -54 -98 -89 -170 -36 -71 -68 -132
-71 -135 -3 -3 -15 -23 -27 -45 -31 -59 -48 -89 -56 -95 -3 -3 -23 -37 -43
-75 -20 -39 -43 -77 -49 -85 -7 -8 -39 -60 -70 -115 -32 -55 -67 -111 -77
-125 -10 -14 -29 -45 -42 -70 -55 -102 -145 -220 -167 -220 -5 0 -10 -4 -10
-10 0 -5 4 -10 8 -10 12 0 73 67 120 130 40 54 295 474 377 620 23 41 77 136
120 210 43 74 113 204 156 288 55 109 90 164 119 192 24 22 48 41 54 41 47 6
56 5 56 -3 0 -18 -63 -173 -74 -183 -7 -5 -36 -62 -66 -125 -29 -63 -63 -131
-75 -150 -12 -19 -52 -91 -90 -160 -37 -69 -84 -154 -104 -190 -19 -36 -34
-68 -33 -72 1 -5 -2 -8 -7 -8 -5 0 -26 -33 -46 -72 -68 -130 -191 -341 -244
-417 -51 -75 -64 -105 -36 -81 27 22 199 289 297 460 307 534 359 631 473 882
35 76 69 144 77 151 15 16 71 20 62 6 -3 -5 0 -9 5 -9 6 0 11 6 11 13 0 8 3 7
10 -3 7 -12 12 -12 22 -2 6 6 29 12 51 12 37 0 38 -1 34 -29 -3 -16 -17 -59
-31 -95 -15 -37 -24 -72 -20 -78 4 -6 3 -8 -3 -5 -13 8 -24 -18 -17 -38 4 -8
-1 -17 -9 -21 -9 -3 -28 -36 -43 -72 -15 -37 -31 -71 -36 -76 -4 -6 -8 -18 -8
-28 0 -10 -4 -18 -9 -18 -4 0 -20 -26 -35 -57 -15 -32 -34 -71 -44 -88 -75
-131 -141 -254 -147 -273 -3 -12 -10 -20 -15 -17 -5 3 -12 -5 -16 -17 -4 -13
-18 -41 -32 -63 -14 -22 -25 -42 -24 -45 0 -3 -7 -14 -17 -25 -10 -11 -20 -25
-22 -30 -2 -6 -31 -57 -63 -115 -56 -98 -152 -235 -215 -305 -66 -73 -46 -62
30 17 152 156 481 706 704 1172 89 188 110 270 106 410 -1 44 -3 48 -14 32
-11 -16 -28 -18 -113 -17 -55 1 -112 4 -127 6 -17 4 -27 1 -28 -7 0 -7 -6 3
-12 22 -9 30 -11 32 -15 13 -3 -20 -10 -23 -46 -23 -48 0 -66 13 -66 48 0 42
18 60 70 71 80 17 83 16 65 -19 -22 -42 -18 -51 5 -12 11 17 21 32 22 32 2 0
21 7 43 16 l40 15 -51 -6 c-33 -3 -66 0 -94 10 -52 18 -49 19 -80 -14z m-345
-241 c-3 -5 -12 -10 -18 -10 -7 0 -6 4 3 10 19 12 23 12 15 0z"/>
<path d="M6610 2509 c19 -17 51 -42 70 -55 19 -13 49 -34 67 -46 17 -13 104
-72 193 -132 89 -59 196 -134 238 -166 105 -78 662 -451 661 -442 0 4 -24 22
-52 41 -80 52 -486 326 -538 363 -26 18 -88 62 -137 98 -50 36 -130 92 -178
125 -48 33 -144 102 -213 152 -123 91 -181 123 -111 62z"/>
<path d="M4905 2480 c3 -5 8 -10 11 -10 2 0 4 5 4 10 0 6 -5 10 -11 10 -5 0
-7 -4 -4 -10z"/>
<path d="M4689 2109 c-20 -16 -20 -18 -4 -11 11 5 27 11 35 14 9 3 10 7 3 11
-6 4 -22 -2 -34 -14z"/>
<path d="M7870 1646 c0 -3 9 -10 20 -16 11 -6 20 -8 20 -6 0 3 -9 10 -20 16
-11 6 -20 8 -20 6z"/>
<path d="M4049 1183 c-13 -16 -12 -17 4 -4 16 13 21 21 13 21 -2 0 -10 -8 -17
-17z"/>
</g>
</svg>
