<svg width="14" height="14" viewBox="0 0 14 14" fill="none" xmlns="http://www.w3.org/2000/svg">
<path fill-rule="evenodd" clip-rule="evenodd" d="M6.14656 1.26233C6.38209 1.2409 6.61951 1.26743 6.84449 1.34032C7.06948 1.41321 7.27735 1.53094 7.45556 1.68641L7.54306 1.76808L12.1059 6.33149C12.4199 6.64557 12.6028 7.0673 12.6174 7.51119C12.632 7.95508 12.4773 8.38793 12.1846 8.72199L12.1059 8.80599L8.80598 12.1059C8.4919 12.4199 8.07017 12.6028 7.62628 12.6174C7.18239 12.632 6.74955 12.4773 6.41548 12.1847L6.33148 12.1059L1.76748 7.54249C1.60034 7.37536 1.46879 7.17611 1.38077 6.95675C1.29274 6.73738 1.25007 6.50246 1.25531 6.26616L1.26173 6.14658L1.53706 3.12199C1.57241 2.7322 1.73741 2.36551 2.00569 2.08052C2.27396 1.79554 2.63003 1.60871 3.01698 1.54991L3.1214 1.53766L6.14656 1.26233ZM6.32623 2.42258L6.25215 2.42433L3.22756 2.69966C3.10352 2.71086 2.98632 2.76147 2.89312 2.84407C2.79991 2.92668 2.73559 3.03695 2.70956 3.15874L2.69965 3.22758L2.42431 6.25216C2.41106 6.39913 2.454 6.54567 2.54448 6.66224L2.5929 6.71766L7.15631 11.2811C7.25676 11.3815 7.3904 11.4418 7.53217 11.4508C7.67393 11.4597 7.81408 11.4166 7.92631 11.3295L7.98115 11.2811L11.2811 7.98116C11.3815 7.88071 11.4418 7.74707 11.4507 7.60531C11.4597 7.46354 11.4165 7.3234 11.3295 7.21116L11.2811 7.15633L6.71765 2.59291C6.61338 2.48872 6.47354 2.42786 6.32623 2.42258ZM4.26823 4.26883C4.43075 4.10631 4.62368 3.97739 4.83602 3.88944C5.04836 3.80149 5.27594 3.75622 5.50577 3.75622C5.73561 3.75622 5.96319 3.80149 6.17553 3.88944C6.38786 3.97739 6.5808 4.10631 6.74331 4.26883C6.90583 4.43134 7.03475 4.62428 7.1227 4.83661C7.21065 5.04895 7.25592 5.27653 7.25592 5.50637C7.25592 5.7362 7.21065 5.96378 7.1227 6.17612C7.03475 6.38846 6.90583 6.58139 6.74331 6.74391C6.4151 7.07213 5.96994 7.25652 5.50577 7.25652C5.0416 7.25652 4.59645 7.07213 4.26823 6.74391C3.94001 6.41569 3.75562 5.97054 3.75562 5.50637C3.75562 5.0422 3.94001 4.59704 4.26823 4.26883ZM5.91848 5.09366C5.86432 5.03946 5.80002 4.99646 5.72924 4.96712C5.65846 4.93777 5.5826 4.92265 5.50598 4.92262C5.42936 4.9226 5.35348 4.93766 5.28269 4.96696C5.21189 4.99625 5.14755 5.03921 5.09336 5.09337C5.03916 5.14753 4.99616 5.21183 4.96681 5.28261C4.93747 5.35339 4.92235 5.42925 4.92232 5.50587C4.92229 5.58249 4.93736 5.65836 4.96666 5.72916C4.99595 5.79996 5.03891 5.86429 5.09306 5.91849C5.20244 6.02795 5.35083 6.08947 5.50557 6.08953C5.66031 6.08958 5.80873 6.02816 5.91819 5.91878C6.02765 5.8094 6.08917 5.66102 6.08922 5.50628C6.08928 5.35154 6.02786 5.20312 5.91848 5.09366Z" fill="#262935"/>
</svg>
