<svg width="18" height="18" viewBox="0 0 18 18" fill="none" xmlns="http://www.w3.org/2000/svg">
<g clip-path="url(#clip0_970_21042)">
<path d="M14.7002 1.8H13.7502V0.9C13.7502 0.661305 13.6501 0.432387 13.4719 0.263604C13.2938 0.0948211 13.0522 0 12.8002 0C12.5482 0 12.3066 0.0948211 12.1284 0.263604C11.9503 0.432387 11.8502 0.661305 11.8502 0.9V1.8H6.1502V0.9C6.1502 0.661305 6.05011 0.432387 5.87195 0.263604C5.69379 0.0948211 5.45215 0 5.2002 0C4.94824 0 4.7066 0.0948211 4.52844 0.263604C4.35028 0.432387 4.2502 0.661305 4.2502 0.9V1.8H3.3002C2.54433 1.8 1.81942 2.08446 1.28494 2.59081C0.750462 3.09716 0.450195 3.78392 0.450195 4.5V15.3C0.450195 16.0161 0.750462 16.7028 1.28494 17.2092C1.81942 17.7155 2.54433 18 3.3002 18H14.7002C15.4561 18 16.181 17.7155 16.7155 17.2092C17.2499 16.7028 17.5502 16.0161 17.5502 15.3V4.5C17.5502 3.78392 17.2499 3.09716 16.7155 2.59081C16.181 2.08446 15.4561 1.8 14.7002 1.8ZM5.2002 13.5C5.0123 13.5 4.82863 13.4472 4.6724 13.3483C4.51618 13.2494 4.39441 13.1089 4.32251 12.9444C4.25061 12.78 4.23179 12.599 4.26845 12.4244C4.30511 12.2498 4.39558 12.0895 4.52844 11.9636C4.6613 11.8377 4.83058 11.752 5.01486 11.7173C5.19914 11.6826 5.39016 11.7004 5.56375 11.7685C5.73733 11.8366 5.8857 11.952 5.99009 12.1C6.09448 12.248 6.1502 12.422 6.1502 12.6C6.1502 12.8387 6.05011 13.0676 5.87195 13.2364C5.69379 13.4052 5.45215 13.5 5.2002 13.5ZM12.8002 13.5H9.0002C8.74824 13.5 8.5066 13.4052 8.32844 13.2364C8.15028 13.0676 8.0502 12.8387 8.0502 12.6C8.0502 12.3613 8.15028 12.1324 8.32844 11.9636C8.5066 11.7948 8.74824 11.7 9.0002 11.7H12.8002C13.0522 11.7 13.2938 11.7948 13.4719 11.9636C13.6501 12.1324 13.7502 12.3613 13.7502 12.6C13.7502 12.8387 13.6501 13.0676 13.4719 13.2364C13.2938 13.4052 13.0522 13.5 12.8002 13.5ZM15.6502 8.1H2.3502V4.5C2.3502 4.2613 2.45028 4.03239 2.62844 3.8636C2.8066 3.69482 3.04824 3.6 3.3002 3.6H4.2502V4.5C4.2502 4.73869 4.35028 4.96761 4.52844 5.1364C4.7066 5.30518 4.94824 5.4 5.2002 5.4C5.45215 5.4 5.69379 5.30518 5.87195 5.1364C6.05011 4.96761 6.1502 4.73869 6.1502 4.5V3.6H11.8502V4.5C11.8502 4.73869 11.9503 4.96761 12.1284 5.1364C12.3066 5.30518 12.5482 5.4 12.8002 5.4C13.0522 5.4 13.2938 5.30518 13.4719 5.1364C13.6501 4.96761 13.7502 4.73869 13.7502 4.5V3.6H14.7002C14.9522 3.6 15.1938 3.69482 15.3719 3.8636C15.5501 4.03239 15.6502 4.2613 15.6502 4.5V8.1Z" fill="#825EF6"/>
</g>
<defs>
<clipPath id="clip0_970_21042">
<rect width="18" height="18" fill="white"/>
</clipPath>
</defs>
</svg>
