<svg width="16" height="16" viewBox="0 0 16 16" fill="none" xmlns="http://www.w3.org/2000/svg">
<path d="M13.0666 1.6H12.2221V0.8C12.2221 0.587827 12.1332 0.384344 11.9748 0.234315C11.8164 0.0842854 11.6016 0 11.3777 0C11.1537 0 10.9389 0.0842854 10.7806 0.234315C10.6222 0.384344 10.5332 0.587827 10.5332 0.8V1.6H5.46657V0.8C5.46657 0.587827 5.3776 0.384344 5.21924 0.234315C5.06087 0.0842854 4.84609 0 4.62212 0C4.39816 0 4.18338 0.0842854 4.02501 0.234315C3.86665 0.384344 3.77768 0.587827 3.77768 0.8V1.6H2.93324C2.26135 1.6 1.61699 1.85286 1.1419 2.30294C0.666806 2.75303 0.399902 3.36348 0.399902 4V13.6C0.399902 14.2365 0.666806 14.847 1.1419 15.2971C1.61699 15.7471 2.26135 16 2.93324 16H13.0666C13.7385 16 14.3828 15.7471 14.8579 15.2971C15.333 14.847 15.5999 14.2365 15.5999 13.6V4C15.5999 3.36348 15.333 2.75303 14.8579 2.30294C14.3828 1.85286 13.7385 1.6 13.0666 1.6ZM4.62212 12C4.45511 12 4.29184 11.9531 4.15298 11.8652C4.01411 11.7773 3.90587 11.6523 3.84196 11.5061C3.77805 11.36 3.76132 11.1991 3.79391 11.0439C3.82649 10.8887 3.90691 10.7462 4.02501 10.6343C4.14311 10.5224 4.29358 10.4462 4.45738 10.4154C4.62119 10.3845 4.79098 10.4003 4.94528 10.4609C5.09958 10.5214 5.23147 10.624 5.32425 10.7555C5.41704 10.8871 5.46657 11.0418 5.46657 11.2C5.46657 11.4122 5.3776 11.6157 5.21924 11.7657C5.06087 11.9157 4.84609 12 4.62212 12ZM11.3777 12H7.9999C7.77594 12 7.56115 11.9157 7.40279 11.7657C7.24443 11.6157 7.15546 11.4122 7.15546 11.2C7.15546 10.9878 7.24443 10.7843 7.40279 10.6343C7.56115 10.4843 7.77594 10.4 7.9999 10.4H11.3777C11.6016 10.4 11.8164 10.4843 11.9748 10.6343C12.1332 10.7843 12.2221 10.9878 12.2221 11.2C12.2221 11.4122 12.1332 11.6157 11.9748 11.7657C11.8164 11.9157 11.6016 12 11.3777 12ZM13.911 7.2H2.08879V4C2.08879 3.78783 2.17776 3.58434 2.33612 3.43431C2.49449 3.28429 2.70928 3.2 2.93324 3.2H3.77768V4C3.77768 4.21217 3.86665 4.41566 4.02501 4.56569C4.18338 4.71571 4.39816 4.8 4.62212 4.8C4.84609 4.8 5.06087 4.71571 5.21924 4.56569C5.3776 4.41566 5.46657 4.21217 5.46657 4V3.2H10.5332V4C10.5332 4.21217 10.6222 4.41566 10.7806 4.56569C10.9389 4.71571 11.1537 4.8 11.3777 4.8C11.6016 4.8 11.8164 4.71571 11.9748 4.56569C12.1332 4.41566 12.2221 4.21217 12.2221 4V3.2H13.0666C13.2905 3.2 13.5053 3.28429 13.6637 3.43431C13.822 3.58434 13.911 3.78783 13.911 4V7.2Z" fill="#F8FAFC"/>
</svg>
