<svg width="16" height="16" viewBox="0 0 16 16" fill="none" xmlns="http://www.w3.org/2000/svg">
<path fill-rule="evenodd" clip-rule="evenodd" d="M4.4002 0.199997C4.73156 0.199997 5.0002 0.468629 5.0002 0.799997V1.4H11.0002V0.799997C11.0002 0.468629 11.2689 0.199997 11.6002 0.199997C11.9315 0.199997 12.2002 0.468629 12.2002 0.799997V1.4H14.0002C14.9943 1.4 15.8002 2.20588 15.8002 3.2V14C15.8002 14.9941 14.9943 15.8 14.0002 15.8H2.0002C1.00608 15.8 0.200195 14.9941 0.200195 14V3.2C0.200195 2.20588 1.00608 1.4 2.0002 1.4H3.8002V0.799997C3.8002 0.468629 4.06883 0.199997 4.4002 0.199997ZM11.0002 2.6V3.2C11.0002 3.53137 11.2689 3.8 11.6002 3.8C11.9315 3.8 12.2002 3.53137 12.2002 3.2V2.6H14.0002C14.3315 2.6 14.6002 2.86863 14.6002 3.2V5H1.4002V3.2C1.4002 2.86863 1.66883 2.6 2.0002 2.6H3.8002V3.2C3.8002 3.53137 4.06883 3.8 4.4002 3.8C4.73156 3.8 5.0002 3.53137 5.0002 3.2V2.6H11.0002ZM1.4002 6.2V14C1.4002 14.3313 1.66883 14.6 2.0002 14.6H14.0002C14.3315 14.6 14.6002 14.3313 14.6002 14V6.2H1.4002ZM7.4002 8C7.4002 7.66863 7.66883 7.4 8.0002 7.4C8.33156 7.4 8.6002 7.66863 8.6002 8C8.6002 8.33137 8.33156 8.6 8.0002 8.6C7.66883 8.6 7.4002 8.33137 7.4002 8ZM10.4002 7.4C10.0688 7.4 9.8002 7.66863 9.8002 8C9.8002 8.33137 10.0688 8.6 10.4002 8.6C10.7316 8.6 11.0002 8.33137 11.0002 8C11.0002 7.66863 10.7316 7.4 10.4002 7.4ZM12.2002 8C12.2002 7.66863 12.4689 7.4 12.8002 7.4C13.1315 7.4 13.4002 7.66863 13.4002 8C13.4002 8.33137 13.1315 8.6 12.8002 8.6C12.4689 8.6 12.2002 8.33137 12.2002 8ZM12.8002 9.8C12.4689 9.8 12.2002 10.0686 12.2002 10.4C12.2002 10.7314 12.4689 11 12.8002 11C13.1315 11 13.4002 10.7314 13.4002 10.4C13.4002 10.0686 13.1315 9.8 12.8002 9.8ZM9.8002 10.4C9.8002 10.0686 10.0688 9.8 10.4002 9.8C10.7316 9.8 11.0002 10.0686 11.0002 10.4C11.0002 10.7314 10.7316 11 10.4002 11C10.0688 11 9.8002 10.7314 9.8002 10.4ZM8.0002 9.8C7.66883 9.8 7.4002 10.0686 7.4002 10.4C7.4002 10.7314 7.66883 11 8.0002 11C8.33156 11 8.6002 10.7314 8.6002 10.4C8.6002 10.0686 8.33156 9.8 8.0002 9.8ZM5.0002 10.4C5.0002 10.0686 5.26883 9.8 5.6002 9.8C5.93156 9.8 6.2002 10.0686 6.2002 10.4C6.2002 10.7314 5.93156 11 5.6002 11C5.26883 11 5.0002 10.7314 5.0002 10.4ZM3.2002 9.8C2.86883 9.8 2.6002 10.0686 2.6002 10.4C2.6002 10.7314 2.86883 11 3.2002 11C3.53156 11 3.8002 10.7314 3.8002 10.4C3.8002 10.0686 3.53156 9.8 3.2002 9.8ZM2.6002 12.8C2.6002 12.4687 2.86883 12.2 3.2002 12.2C3.53156 12.2 3.8002 12.4687 3.8002 12.8C3.8002 13.1313 3.53156 13.4 3.2002 13.4C2.86883 13.4 2.6002 13.1313 2.6002 12.8ZM5.6002 12.2C5.26883 12.2 5.0002 12.4687 5.0002 12.8C5.0002 13.1313 5.26883 13.4 5.6002 13.4C5.93156 13.4 6.2002 13.1313 6.2002 12.8C6.2002 12.4687 5.93156 12.2 5.6002 12.2ZM7.4002 12.8C7.4002 12.4687 7.66883 12.2 8.0002 12.2C8.33156 12.2 8.6002 12.4687 8.6002 12.8C8.6002 13.1313 8.33156 13.4 8.0002 13.4C7.66883 13.4 7.4002 13.1313 7.4002 12.8ZM10.4002 12.2C10.0688 12.2 9.8002 12.4687 9.8002 12.8C9.8002 13.1313 10.0688 13.4 10.4002 13.4C10.7316 13.4 11.0002 13.1313 11.0002 12.8C11.0002 12.4687 10.7316 12.2 10.4002 12.2Z" fill="#808191"/>
</svg>
