<svg width="20" height="20" viewBox="0 0 20 20" fill="none" xmlns="http://www.w3.org/2000/svg">
<path d="M2.34519 13.0011L1.41702 13.5526C1.29007 13.6282 1.18479 13.7361 1.11164 13.8657C1.03848 13.9953 1 14.142 1 14.2913C1 14.4407 1.03848 14.5874 1.11164 14.717C1.18479 14.8466 1.29007 14.9545 1.41702 15.0301L9.57364 19.8826C9.70297 19.9595 9.85014 20 10 20C10.1499 20 10.2971 19.9595 10.4264 19.8826L18.5831 15.0301C18.71 14.9545 18.8153 14.8466 18.8884 14.717C18.9615 14.5874 19 14.4407 19 14.2913C19 14.142 18.9615 13.9953 18.8884 13.8657C18.8153 13.7361 18.71 13.6282 18.5831 13.5526L17.6549 13L11.2804 16.793C10.8921 17.024 10.4501 17.1458 10 17.1458C9.54994 17.1458 9.10799 17.024 8.71972 16.793L2.34519 13.0011Z" fill="#808191"/>
<path d="M2.34519 9.00114L1.41702 9.55261C1.29007 9.62815 1.18479 9.73607 1.11164 9.86566C1.03848 9.99524 1 10.142 1 10.2913C1 10.4407 1.03848 10.5874 1.11164 10.717C1.18479 10.8466 1.29007 10.9545 1.41702 11.0301L9.57364 15.8826C9.70297 15.9595 9.85014 16 10 16C10.1499 16 10.2971 15.9595 10.4264 15.8826L18.5831 11.0301C18.71 10.9545 18.8153 10.8466 18.8884 10.717C18.9615 10.5874 19 10.4407 19 10.2913C19 10.142 18.9615 9.99524 18.8884 9.86566C18.8153 9.73607 18.71 9.62815 18.5831 9.55261L17.6549 9L11.2804 12.793C10.8921 13.024 10.4501 13.1458 10 13.1458C9.54994 13.1458 9.10799 13.024 8.71972 12.793L2.34519 9.00114Z" fill="#808191"/>
<path d="M10.4274 0.113728C10.2979 0.0392637 10.1503 0 9.99998 0C9.84967 0 9.7021 0.0392637 9.57252 0.113728L1.41697 4.78836C1.29003 4.86111 1.18477 4.96508 1.11162 5.08992C1.03848 5.21475 1 5.35612 1 5.5C1 5.64387 1.03848 5.78524 1.11162 5.91008C1.18477 6.03491 1.29003 6.13887 1.41697 6.21164L9.57252 10.8863C9.7021 10.9607 9.84967 11 9.99998 11C10.1503 11 10.2979 10.9607 10.4274 10.8863L18.583 6.21164C18.7099 6.13887 18.8152 6.03491 18.8883 5.91008C18.9615 5.78524 19 5.64387 19 5.5C19 5.35612 18.9615 5.21475 18.8883 5.08992C18.8152 4.96508 18.7099 4.86111 18.583 4.78836L10.4274 0.113728Z" fill="#808191"/>
</svg>
