<svg width="16" height="16" viewBox="0 0 16 16" fill="none" xmlns="http://www.w3.org/2000/svg">
<g clip-path="url(#clip0_3559_3284)">
<path d="M1.87596 10.4009L1.13342 10.8421C1.03186 10.9026 0.947636 10.9889 0.889116 11.0926C0.830586 11.1963 0.799805 11.3136 0.799805 11.4331C0.799805 11.5526 0.830586 11.67 0.889116 11.7736C0.947636 11.8773 1.03186 11.9636 1.13342 12.0241L7.65871 15.9061C7.76218 15.9676 7.87992 16 7.99983 16C8.11973 16 8.23746 15.9676 8.34096 15.9061L14.8663 12.0241C14.9678 11.9636 15.052 11.8773 15.1105 11.7736C15.169 11.67 15.1998 11.5526 15.1998 11.4331C15.1998 11.3136 15.169 11.1963 15.1105 11.0926C15.052 10.9889 14.9678 10.9026 14.8663 10.8421L14.1237 10.4L9.02409 13.4344C8.71349 13.6192 8.35986 13.7167 7.99983 13.7167C7.63976 13.7167 7.2862 13.6192 6.97558 13.4344L1.87596 10.4009Z" fill="white"/>
<path d="M1.87596 7.20086L1.13342 7.64204C1.03186 7.70247 0.947636 7.78881 0.889116 7.89248C0.830586 7.99614 0.799805 8.11355 0.799805 8.23303C0.799805 8.35251 0.830586 8.46988 0.889116 8.57355C0.947636 8.67723 1.03186 8.76354 1.13342 8.82401L7.65871 12.7061C7.76218 12.7675 7.87992 12.8 7.99983 12.8C8.11973 12.8 8.23746 12.7675 8.34096 12.7061L14.8663 8.82401C14.9678 8.76354 15.052 8.67723 15.1105 8.57355C15.169 8.46988 15.1998 8.35251 15.1998 8.23303C15.1998 8.11355 15.169 7.99614 15.1105 7.89248C15.052 7.78881 14.9678 7.70247 14.8663 7.64204L14.1237 7.19995L9.02409 10.2343C8.71349 10.4191 8.35986 10.5166 7.99983 10.5166C7.63976 10.5166 7.2862 10.4191 6.97558 10.2343L1.87596 7.20086Z" fill="white"/>
<path d="M8.34176 0.0909822C8.23809 0.0314109 8.12002 0 7.99979 0C7.87954 0 7.76148 0.0314109 7.65782 0.0909822L1.13338 3.83068C1.03183 3.88889 0.947617 3.97206 0.889104 4.07194C0.830591 4.1718 0.799805 4.2849 0.799805 4.4C0.799805 4.51509 0.830591 4.62819 0.889104 4.72806C0.947617 4.82793 1.03183 4.9111 1.13338 4.96931L7.65782 8.70902C7.76148 8.76859 7.87954 8.8 7.99979 8.8C8.12002 8.8 8.23809 8.76859 8.34176 8.70902L14.8662 4.96931C14.9677 4.9111 15.0519 4.82793 15.1104 4.72806C15.169 4.62819 15.1998 4.51509 15.1998 4.4C15.1998 4.2849 15.169 4.1718 15.1104 4.07194C15.0519 3.97206 14.9677 3.88889 14.8662 3.83068L8.34176 0.0909822Z" fill="white"/>
</g>
<defs>
<clipPath id="clip0_3559_3284">
<rect width="16" height="16" fill="white"/>
</clipPath>
</defs>
</svg>
