<svg width="20" height="20" viewBox="0 0 20 20" fill="none" xmlns="http://www.w3.org/2000/svg">
<path fill-rule="evenodd" clip-rule="evenodd" d="M10 0.734375C4.4775 0.734375 0 4.98721 0 10.2344C0 14.4318 2.865 17.9927 6.83833 19.2491C7.33833 19.337 7.52167 19.0433 7.52167 18.7923C7.52167 18.5659 7.5125 17.8178 7.50833 17.0237C4.72667 17.5985 4.13917 15.9027 4.13917 15.9027C3.68417 14.8047 3.02917 14.5125 3.02917 14.5125C2.12167 13.9228 3.0975 13.9354 3.0975 13.9354C4.10167 14.0027 4.63 14.9147 4.63 14.9147C5.52167 16.3666 6.96917 15.947 7.54 15.704C7.63 15.0897 7.88917 14.6709 8.175 14.4334C5.95417 14.1935 3.61917 13.3789 3.61917 9.73879C3.61917 8.70171 4.01 7.85383 4.65 7.18883C4.54583 6.94896 4.20333 5.98312 4.74667 4.6745C4.74667 4.6745 5.58667 4.41958 7.4975 5.64825C8.295 5.43767 9.15 5.33238 10 5.32842C10.85 5.33238 11.7058 5.43767 12.505 5.64825C14.4133 4.41879 15.2525 4.6745 15.2525 4.6745C15.7967 5.98312 15.4542 6.94896 15.3508 7.18883C15.9917 7.85383 16.38 8.70171 16.38 9.73879C16.38 13.3876 14.0408 14.1911 11.8142 14.4263C12.1725 14.7208 12.4925 15.2995 12.4925 16.1853C12.4925 17.4568 12.4808 18.4796 12.4808 18.7923C12.4808 19.0448 12.6608 19.3417 13.1675 19.2483C17.1392 17.9903 20.0008 14.431 20.0008 10.2352C20 4.988 15.5225 0.734375 10 0.734375Z" fill="#F8FAFC"/>
<path d="M3.78753 14.3746C3.76586 14.4221 3.68753 14.4363 3.61586 14.4039C3.54336 14.373 3.50253 14.3081 3.52586 14.2614C3.54753 14.2131 3.62586 14.1996 3.69836 14.2321C3.77086 14.2622 3.81253 14.3271 3.78753 14.3746Z" fill="#F8FAFC"/>
<path d="M4.19249 14.8037C4.14499 14.8457 4.05166 14.8259 3.98833 14.7602C3.92249 14.6937 3.91083 14.605 3.95916 14.563C4.00833 14.5211 4.09833 14.5409 4.16416 14.6074C4.22999 14.6731 4.24249 14.7609 4.19249 14.8037Z" fill="#F8FAFC"/>
<path d="M4.58664 15.3508C4.52497 15.3912 4.42497 15.3532 4.3633 15.2693C4.30164 15.1846 4.30164 15.0832 4.36497 15.0429C4.42664 15.0025 4.5258 15.0389 4.5883 15.1228C4.64914 15.2083 4.64914 15.3097 4.58664 15.3508Z" fill="#F8FAFC"/>
<path d="M5.12669 15.8799C5.07169 15.9377 4.95502 15.9218 4.87002 15.8435C4.78252 15.7667 4.75836 15.6582 4.81336 15.6004C4.86919 15.5426 4.98669 15.5592 5.07252 15.6368C5.15919 15.7136 5.18502 15.8229 5.12669 15.8799Z" fill="#F8FAFC"/>
<path d="M5.8725 16.186C5.84833 16.2605 5.73583 16.2945 5.6225 16.2628C5.50917 16.2304 5.435 16.1433 5.45833 16.0681C5.48167 15.9929 5.595 15.958 5.70917 15.9921C5.82167 16.0238 5.89583 16.1108 5.8725 16.186Z" fill="#F8FAFC"/>
<path d="M6.69086 16.2431C6.69336 16.3215 6.59753 16.3864 6.47836 16.388C6.3592 16.3903 6.2617 16.327 6.26086 16.2502C6.26086 16.1711 6.35503 16.1069 6.4742 16.1046C6.59336 16.1022 6.69086 16.1655 6.69086 16.2431Z" fill="#F8FAFC"/>
<path d="M7.4525 16.1203C7.46666 16.1963 7.38416 16.2755 7.26583 16.2961C7.15 16.3167 7.0425 16.2692 7.0275 16.1932C7.01333 16.1148 7.0975 16.0364 7.21333 16.0158C7.33083 15.996 7.4375 16.0419 7.4525 16.1203Z" fill="#F8FAFC"/>
</svg>
