<svg width="18" height="18" viewBox="0 0 18 18" fill="none" xmlns="http://www.w3.org/2000/svg">
<path d="M0.977144 4.959C1.74123 3.46792 2.9134 2.21446 4.36264 1.33872C5.81188 0.462984 7.48108 -0.000525212 9.18367 4.46608e-07C11.6587 4.46608e-07 13.7379 0.891 15.3276 2.3445L12.6946 4.9257C11.7422 4.0338 10.5318 3.5793 9.18367 3.5793C6.79133 3.5793 4.76633 5.1633 4.04541 7.29C3.86174 7.83 3.75704 8.406 3.75704 9C3.75704 9.594 3.86174 10.17 4.04541 10.71C4.76725 12.8376 6.79133 14.4207 9.18367 14.4207C10.4189 14.4207 11.4704 14.1012 12.2933 13.5612C12.7703 13.2534 13.1787 12.854 13.4938 12.3871C13.8088 11.9203 14.024 11.3957 14.1263 10.845H9.18367V7.3638H17.8329C17.9412 7.9524 18 8.5662 18 9.2043C18 11.9457 16.999 14.2533 15.2614 15.8193C13.7424 17.1945 11.6633 18 9.18367 18C7.97752 18.0005 6.7831 17.768 5.66866 17.3159C4.55423 16.8638 3.54164 16.2008 2.68876 15.365C1.83588 14.5292 1.15943 13.5369 0.698083 12.4447C0.236731 11.3526 -0.000482016 10.182 7.3535e-07 9C7.3535e-07 7.5474 0.35449 6.174 0.977144 4.959Z" fill="#F8FAFC"/>
</svg>
