<svg width="26" height="26" viewBox="0 0 26 26" fill="none" xmlns="http://www.w3.org/2000/svg">
<g filter="url(#filter0_d_727_31585)">
<path fill-rule="evenodd" clip-rule="evenodd" d="M7.85625 1.15762C4.52385 2.17741 3.33567 5.62383 4.35235 8.63911C5.98775 13.4744 13.0012 17.0999 13.0012 17.0999C13.0012 17.0999 20.0668 13.4186 21.6492 8.63911C22.6649 5.62383 21.4692 2.17741 18.1368 1.15762C16.3858 0.623866 14.3799 0.965898 13.0012 1.97849C11.544 0.937095 9.60915 0.620266 7.85625 1.15762ZM16.4002 3.77332C15.999 3.67062 15.5904 3.91266 15.4877 4.31394C15.385 4.71522 15.627 5.12378 16.0283 5.22648C17.2514 5.53951 17.9584 6.35546 18.0396 7.14785C18.0819 7.5599 18.4502 7.85968 18.8622 7.81742C19.2743 7.77516 19.5741 7.40686 19.5318 6.99481C19.3689 5.40688 18.0478 4.19499 16.4002 3.77332Z" fill="#825EF6"/>
</g>
<defs>
<filter id="filter0_d_727_31585" x="0" y="0" width="26" height="26" filterUnits="userSpaceOnUse" color-interpolation-filters="sRGB">
<feFlood flood-opacity="0" result="BackgroundImageFix"/>
<feColorMatrix in="SourceAlpha" type="matrix" values="0 0 0 0 0 0 0 0 0 0 0 0 0 0 0 0 0 0 127 0" result="hardAlpha"/>
<feOffset dy="4"/>
<feGaussianBlur stdDeviation="2"/>
<feComposite in2="hardAlpha" operator="out"/>
<feColorMatrix type="matrix" values="0 0 0 0 0.509804 0 0 0 0 0.368627 0 0 0 0 0.964706 0 0 0 0.38 0"/>
<feBlend mode="normal" in2="BackgroundImageFix" result="effect1_dropShadow_727_31585"/>
<feBlend mode="normal" in="SourceGraphic" in2="effect1_dropShadow_727_31585" result="shape"/>
</filter>
</defs>
</svg>
