<svg width="16" height="16" viewBox="0 0 16 16" fill="none" xmlns="http://www.w3.org/2000/svg">
<path fill-rule="evenodd" clip-rule="evenodd" d="M3.42778 1.02901C0.465642 1.93549 -0.590519 4.99898 0.313197 7.67923C1.76689 11.9772 8.00111 15.1999 8.00111 15.1999C8.00111 15.1999 14.2816 11.9276 15.6882 7.67923C16.591 4.99898 15.5281 1.93549 12.566 1.02901C11.0096 0.554561 9.22656 0.85859 8.00111 1.75867C6.70575 0.832987 4.98591 0.551361 3.42778 1.02901ZM11.0431 3.27335C10.6418 3.17064 10.2333 3.41269 10.1306 3.81397C10.0279 4.21524 10.2699 4.6238 10.6712 4.72651C11.7347 4.99871 12.3291 5.70201 12.3968 6.36216C12.439 6.77421 12.8073 7.07399 13.2194 7.03173C13.6314 6.98947 13.9312 6.62117 13.8889 6.20912C13.7396 4.75343 12.5312 3.6542 11.0431 3.27335Z" fill="#825EF6"/>
</svg>
