<svg width="14" height="14" viewBox="0 0 14 14" fill="none" xmlns="http://www.w3.org/2000/svg">
<path d="M6.70344 1.16675C8.1516 1.16675 9.33268 2.32758 9.33268 3.75675V6.55091H5.77164C5.51643 6.55091 5.31463 6.74925 5.31463 7.00008C5.31463 7.24508 5.51643 7.44925 5.77164 7.44925H9.33268V10.2376C9.33268 11.6667 8.1516 12.8334 6.69157 12.8334H3.80119C2.3471 12.8334 1.16602 11.6726 1.16602 10.2434V3.76258C1.16602 2.32758 2.35303 1.16675 3.80713 1.16675H6.70344ZM10.8145 4.9877C10.9895 4.80686 11.2753 4.80686 11.4503 4.98187L13.1536 6.67937C13.2411 6.76687 13.2878 6.8777 13.2878 7.0002C13.2878 7.11687 13.2411 7.23353 13.1536 7.3152L11.4503 9.0127C11.3628 9.1002 11.2461 9.14686 11.1353 9.14686C11.0186 9.14686 10.902 9.1002 10.8145 9.0127C10.6395 8.8377 10.6395 8.55187 10.8145 8.37687L11.7478 7.44937L9.33268 7.44925V6.55091L11.7478 6.55103L10.8145 5.62353C10.6395 5.44853 10.6395 5.1627 10.8145 4.9877Z" fill="#C5D0E6"/>
</svg>
