<svg width="20" height="20" viewBox="0 0 20 20" fill="none" xmlns="http://www.w3.org/2000/svg">
<path d="M13.8832 1.66666C16.7165 1.66666 18.3332 3.26666 18.3332 6.10832V13.8917C18.3332 16.7167 16.7248 18.3333 13.8915 18.3333H6.10817C3.2665 18.3333 1.6665 16.7167 1.6665 13.8917V6.10832C1.6665 3.26666 3.2665 1.66666 6.10817 1.66666H13.8832ZM9.9915 6.25832C9.60817 6.25832 9.29984 6.56666 9.29984 6.94999V9.29999H6.9415C6.75817 9.29999 6.58317 9.37499 6.44984 9.49999C6.32484 9.63332 6.24984 9.80749 6.24984 9.99166C6.24984 10.375 6.55817 10.6833 6.9415 10.6917H9.29984V13.05C9.29984 13.4333 9.60817 13.7417 9.9915 13.7417C10.3748 13.7417 10.6832 13.4333 10.6832 13.05V10.6917H13.0498C13.4332 10.6833 13.7415 10.375 13.7415 9.99166C13.7415 9.60832 13.4332 9.29999 13.0498 9.29999H10.6832V6.94999C10.6832 6.56666 10.3748 6.25832 9.9915 6.25832Z" fill="#808191"/>
</svg>
