<svg width="18" height="12" viewBox="0 0 18 12" fill="none" xmlns="http://www.w3.org/2000/svg">
<path d="M9 3.6C8.34901 3.6 7.72469 3.85286 7.26437 4.30294C6.80406 4.75303 6.54545 5.36348 6.54545 6C6.54545 6.63652 6.80406 7.24697 7.26437 7.69706C7.72469 8.14714 8.34901 8.4 9 8.4C9.65099 8.4 10.2753 8.14714 10.7356 7.69706C11.1959 7.24697 11.4545 6.63652 11.4545 6C11.4545 5.36348 11.1959 4.75303 10.7356 4.30294C10.2753 3.85286 9.65099 3.6 9 3.6ZM9 10C7.91502 10 6.87448 9.57857 6.10729 8.82843C5.3401 8.07828 4.90909 7.06087 4.90909 6C4.90909 4.93913 5.3401 3.92172 6.10729 3.17157C6.87448 2.42143 7.91502 2 9 2C10.085 2 11.1255 2.42143 11.8927 3.17157C12.6599 3.92172 13.0909 4.93913 13.0909 6C13.0909 7.06087 12.6599 8.07828 11.8927 8.82843C11.1255 9.57857 10.085 10 9 10ZM9 0C4.90909 0 1.41545 2.488 0 6C1.41545 9.512 4.90909 12 9 12C13.0909 12 16.5845 9.512 18 6C16.5845 2.488 13.0909 0 9 0Z" fill="#808191"/>
</svg>
