<svg width="20" height="20" viewBox="0 0 20 20" fill="none" xmlns="http://www.w3.org/2000/svg">
<path fill-rule="evenodd" clip-rule="evenodd" d="M1.66675 8.89169C1.66675 4.90146 4.86703 1.66675 8.81478 1.66675C10.7106 1.66675 12.5287 2.42794 13.8692 3.78288C15.2097 5.13782 15.9628 6.97551 15.9628 8.89169C15.9628 12.8819 12.7625 16.1166 8.81478 16.1166C4.86703 16.1166 1.66675 12.8819 1.66675 8.89169ZM15.8445 14.712L17.9734 16.4304H18.0104C18.4411 16.8658 18.4411 17.5716 18.0104 18.0069C17.5797 18.4422 16.8814 18.4422 16.4507 18.0069L14.684 15.9821C14.517 15.8139 14.4231 15.5854 14.4231 15.3471C14.4231 15.1087 14.517 14.8802 14.684 14.712C15.0061 14.3921 15.5224 14.3921 15.8445 14.712Z" fill="#C5D0E6"/>
</svg>
