<svg width="16" height="16" viewBox="0 0 16 16" fill="none" xmlns="http://www.w3.org/2000/svg">
<path d="M7.99927 2.4473C7.6699 2.4473 7.40308 2.18622 7.40308 1.86424V0.583058C7.40308 0.260942 7.67003 0 7.99927 0C8.3285 0 8.59534 0.261074 8.59534 0.583058V1.86424C8.59534 2.18636 8.3285 2.4473 7.99927 2.4473Z" fill="#393E4F"/>
<path d="M7.99927 15.9999C7.6699 15.9999 7.40308 15.7388 7.40308 15.417V14.1357C7.40308 13.8136 7.67003 13.5527 7.99927 13.5527C8.3285 13.5527 8.59534 13.8136 8.59534 14.1357V15.417C8.59534 15.7389 8.3285 15.9999 7.99927 15.9999Z" fill="#393E4F"/>
<path d="M13.4627 5.566C13.2547 5.566 13.0526 5.45936 12.9429 5.26936C12.781 4.98917 12.8821 4.63309 13.169 4.47474L14.3098 3.84492C14.5964 3.68658 14.9603 3.78585 15.1221 4.06604C15.284 4.34634 15.1827 4.70231 14.8959 4.86065L13.7554 5.49035C13.6625 5.54172 13.5619 5.56601 13.4627 5.56601L13.4627 5.566Z" fill="#393E4F"/>
<path d="M1.39675 12.2299C1.18891 12.2299 0.986499 12.1232 0.87698 11.9333C0.715417 11.6528 0.816571 11.2971 1.10319 11.1387L2.24402 10.509C2.53123 10.3505 2.89463 10.4497 3.0563 10.7301C3.21798 11.0107 3.11694 11.3664 2.83021 11.5247L1.68937 12.1544C1.5967 12.2059 1.49625 12.2299 1.39675 12.2299L1.39675 12.2299Z" fill="#393E4F"/>
<path d="M2.53657 5.56616C2.4373 5.56616 2.3365 5.54209 2.24418 5.49084L1.10335 4.86103C0.816727 4.70268 0.715221 4.34704 0.877136 4.06641C1.03905 3.78622 1.40246 3.68683 1.68965 3.8453L2.83049 4.47511C3.11711 4.63312 3.21837 4.98909 3.05658 5.26949C2.94671 5.45928 2.74475 5.56614 2.53657 5.56614L2.53657 5.56616Z" fill="#393E4F"/>
<path d="M14.6024 12.23C14.5031 12.23 14.4022 12.2059 14.3099 12.1547L13.1688 11.5246C12.8823 11.3666 12.7809 11.0109 12.9429 10.7302C13.1046 10.4499 13.4681 10.3505 13.7552 10.5091L14.8963 11.1386C15.1828 11.2971 15.2844 11.6527 15.1221 11.9332C15.0127 12.1235 14.8109 12.23 14.6024 12.23L14.6024 12.23Z" fill="#393E4F"/>
<path d="M8.00013 4C5.79087 4 4 5.79092 4 7.99987C4 10.2091 5.79092 12 8.00013 12C10.2093 12 12 10.2091 12 7.99987C12 5.79082 10.2093 4 8.00013 4ZM10.8046 8.03406C10.7918 8.03569 10.779 8.03651 10.7665 8.03651C10.6205 8.03651 10.4934 7.92803 10.4742 7.77907C10.315 6.54328 9.29886 5.5688 8.05755 5.46186C7.89545 5.448 7.77504 5.30516 7.78922 5.14266C7.80298 4.98045 7.94561 4.86054 8.10834 4.87401C9.62399 5.00441 10.8653 6.194 11.0595 7.70328C11.0802 7.86549 10.9661 8.01343 10.8045 8.03412L10.8046 8.03406Z" fill="#393E4F"/>
</svg>
