<svg width="24" height="24" viewBox="0 0 24 24" fill="none" xmlns="http://www.w3.org/2000/svg">
<rect width="24" height="24" rx="12" fill="#262935"/>
<path d="M11.9993 6.4473C11.6699 6.4473 11.4031 6.18622 11.4031 5.86424V4.58306C11.4031 4.26094 11.67 4 11.9993 4C12.3285 4 12.5953 4.26107 12.5953 4.58306V5.86424C12.5953 6.18636 12.3285 6.4473 11.9993 6.4473Z" fill="#393E4F"/>
<path d="M11.9993 19.9999C11.6699 19.9999 11.4031 19.7388 11.4031 19.417V18.1357C11.4031 17.8136 11.67 17.5527 11.9993 17.5527C12.3285 17.5527 12.5953 17.8136 12.5953 18.1357V19.417C12.5953 19.7389 12.3285 19.9999 11.9993 19.9999Z" fill="#393E4F"/>
<path d="M17.4627 9.566C17.2547 9.566 17.0526 9.45936 16.9429 9.26936C16.781 8.98917 16.8821 8.63309 17.169 8.47474L18.3098 7.84492C18.5964 7.68658 18.9603 7.78585 19.1221 8.06604C19.284 8.34634 19.1827 8.70231 18.8959 8.86065L17.7554 9.49035C17.6625 9.54172 17.5619 9.56601 17.4627 9.56601L17.4627 9.566Z" fill="#393E4F"/>
<path d="M5.39675 16.2299C5.18891 16.2299 4.9865 16.1232 4.87698 15.9333C4.71542 15.6528 4.81657 15.2971 5.10319 15.1387L6.24402 14.509C6.53123 14.3505 6.89463 14.4497 7.0563 14.7301C7.21798 15.0107 7.11694 15.3664 6.83021 15.5247L5.68937 16.1544C5.5967 16.2059 5.49625 16.2299 5.39675 16.2299L5.39675 16.2299Z" fill="#393E4F"/>
<path d="M6.53657 9.56616C6.4373 9.56616 6.3365 9.54209 6.24418 9.49084L5.10335 8.86103C4.81673 8.70268 4.71522 8.34704 4.87714 8.06641C5.03905 7.78622 5.40246 7.68683 5.68965 7.8453L6.83049 8.47511C7.11711 8.63312 7.21837 8.98909 7.05658 9.26949C6.94671 9.45928 6.74475 9.56614 6.53657 9.56614L6.53657 9.56616Z" fill="#393E4F"/>
<path d="M18.6024 16.23C18.5031 16.23 18.4022 16.2059 18.3099 16.1547L17.1688 15.5246C16.8823 15.3666 16.7809 15.0109 16.9429 14.7302C17.1046 14.4499 17.4681 14.3505 17.7552 14.5091L18.8963 15.1386C19.1828 15.2971 19.2844 15.6527 19.1221 15.9332C19.0127 16.1235 18.8109 16.23 18.6024 16.23L18.6024 16.23Z" fill="#393E4F"/>
<path d="M12.0001 8C9.79087 8 8 9.79092 8 11.9999C8 14.2091 9.79092 16 12.0001 16C14.2093 16 16 14.2091 16 11.9999C16 9.79082 14.2093 8 12.0001 8ZM14.8046 12.0341C14.7918 12.0357 14.779 12.0365 14.7665 12.0365C14.6205 12.0365 14.4934 11.928 14.4742 11.7791C14.315 10.5433 13.2989 9.5688 12.0576 9.46186C11.8954 9.448 11.775 9.30516 11.7892 9.14266C11.803 8.98045 11.9456 8.86054 12.1083 8.87401C13.624 9.00441 14.8653 10.194 15.0595 11.7033C15.0802 11.8655 14.9661 12.0134 14.8045 12.0341L14.8046 12.0341Z" fill="#393E4F"/>
</svg>
