<svg width="16" height="18" viewBox="0 0 16 18" fill="none" xmlns="http://www.w3.org/2000/svg">
<path d="M10.055 6.75003L9.7955 13.5M6.2045 13.5L5.945 6.75003M13.421 4.34253C13.6775 4.38153 13.9325 4.42277 14.1875 4.46703M13.421 4.34253L12.62 14.7548C12.5873 15.1787 12.3958 15.5747 12.0838 15.8635C11.7717 16.1523 11.3622 16.3127 10.937 16.3125H5.063C4.63782 16.3127 4.22827 16.1523 3.91623 15.8635C3.6042 15.5747 3.41269 15.1787 3.38 14.7548L2.579 4.34253M13.421 4.34253C12.5554 4.21166 11.6853 4.11235 10.8125 4.04478M2.579 4.34253C2.3225 4.38078 2.0675 4.42203 1.8125 4.46628M2.579 4.34253C3.4446 4.21166 4.31468 4.11235 5.1875 4.04478M10.8125 4.04478V3.35778C10.8125 2.47278 10.13 1.73477 9.245 1.70702C8.41521 1.6805 7.58479 1.6805 6.755 1.70702C5.87 1.73477 5.1875 2.47352 5.1875 3.35778V4.04478M10.8125 4.04478C8.94029 3.90008 7.05971 3.90008 5.1875 4.04478" stroke="#FF584D" stroke-width="1.8" stroke-linecap="round" stroke-linejoin="round"/>
</svg>
