<svg width="17" height="16" viewBox="0 0 17 16" fill="none" xmlns="http://www.w3.org/2000/svg">
<path fill-rule="evenodd" clip-rule="evenodd" d="M8.5 10.5C8.63261 10.5 8.75978 10.4474 8.85355 10.3536C8.94732 10.2598 9 10.1327 9 10V2.68471L10.12 3.99205C10.2063 4.09283 10.3291 4.15521 10.4613 4.16546C10.5936 4.17571 10.7245 4.133 10.8253 4.04671C10.9261 3.96043 10.9885 3.83764 10.9987 3.70537C11.009 3.57309 10.9663 3.44216 10.88 3.34138L8.88 1.00805C8.83306 0.953157 8.77478 0.909087 8.70919 0.878871C8.64359 0.848654 8.57222 0.833008 8.5 0.833008C8.42777 0.833008 8.35641 0.848654 8.29081 0.878871C8.22521 0.909087 8.16694 0.953157 8.12 1.00805L6.12 3.34138C6.07727 3.39128 6.0448 3.44911 6.02442 3.51156C6.00405 3.57402 5.99618 3.63987 6.00125 3.70537C6.00633 3.77086 6.02426 3.83472 6.05401 3.89329C6.08376 3.95186 6.12476 4.00399 6.17466 4.04671C6.22457 4.08944 6.2824 4.12191 6.34485 4.14229C6.4073 4.16266 6.47316 4.17054 6.53865 4.16546C6.60415 4.16038 6.668 4.14246 6.72657 4.1127C6.78514 4.08295 6.83727 4.04195 6.88 3.99205L8 2.68538V10C8 10.276 8.224 10.5 8.5 10.5Z" fill="#C5D0E6"/>
<path d="M11.1666 6C10.6986 6 10.4646 6 10.2959 6.11267C10.2234 6.16119 10.1611 6.22348 10.1126 6.296C9.99992 6.46467 9.99992 6.69867 9.99992 7.16667V10C9.99992 10.3978 9.84188 10.7794 9.56058 11.0607C9.27927 11.342 8.89774 11.5 8.49992 11.5C8.10209 11.5 7.72056 11.342 7.43926 11.0607C7.15795 10.7794 6.99992 10.3978 6.99992 10V7.16667C6.99992 6.69867 6.99992 6.46467 6.88725 6.296C6.83873 6.22348 6.77644 6.16119 6.70392 6.11267C6.53525 6 6.30125 6 5.83325 6C3.94792 6 3.00459 6 2.41925 6.586C1.83325 7.17133 1.83325 8.11333 1.83325 9.99933V10.666C1.83325 12.5527 1.83325 13.4947 2.41925 14.0807C3.00459 14.6667 3.94792 14.6667 5.83325 14.6667H11.1666C13.0519 14.6667 13.9953 14.6667 14.5806 14.0807C15.1666 13.4947 15.1666 12.552 15.1666 10.6667V10C15.1666 8.114 15.1666 7.17133 14.5806 6.586C13.9953 6 13.0519 6 11.1666 6Z" fill="#C5D0E6"/>
</svg>
