<svg width="20" height="20" viewBox="0 0 20 20" fill="none" xmlns="http://www.w3.org/2000/svg">
<g clip-path="url(#clip0_5460_5236)">
<path d="M8.025 0L11.4385 9.96984L8.025 20C7.94063 20 7.85625 19.982 7.77773 19.9453L0.338672 16.423C0.132031 16.327 0 16.1199 0 15.8918V1.97109C0 0.882422 0.884375 0 1.975 0L8.025 0Z" fill="#80A9FF"/>
<path d="M18.0226 0C16.9339 0 18.0248 5.27734 18.0248 5.27734L16.0495 11.6182V15.8918C16.0495 16.1199 15.9175 16.327 15.7108 16.423L8.27217 19.9453C8.19365 19.982 8.10928 20 8.0249 20V0L18.0226 0Z" fill="#6680FF"/>
<path d="M12.0191 5.4415C11.7896 5.35618 11.5312 5.42259 11.3713 5.60802L9.96744 7.23564C9.75607 7.48067 9.78342 7.85067 10.0285 8.06204C10.2735 8.27341 10.6435 8.24607 10.8549 8.00103L11.229 7.5672V12.5586C11.229 12.8822 11.4914 13.1445 11.815 13.1445C12.1386 13.1445 12.4009 12.8822 12.4009 12.5586V5.99071C12.4009 5.74587 12.2487 5.52681 12.0191 5.4415Z" fill="#F8FAFC"/>
<path d="M6.16191 5.13672C4.7916 5.13672 3.67676 6.25156 3.67676 7.62187V10.6594C3.67676 12.0297 4.7916 13.1445 6.16191 13.1445C6.90332 13.1445 7.56973 12.8184 8.0252 12.302L8.33633 8.46164L8.0252 5.97934C7.56973 5.46289 6.90332 5.13672 6.16191 5.13672ZM7.47559 10.6594C7.47559 11.3836 6.88613 11.9727 6.16191 11.9727C5.43809 11.9727 4.84863 11.3836 4.84863 10.6594V7.62187C4.84863 6.89766 5.43809 6.30859 6.16191 6.30859C6.88613 6.30859 7.47559 6.89766 7.47559 7.62187V10.6594Z" fill="#F8FAFC"/>
<path d="M8.64717 7.62189V10.6594C8.64717 11.2887 8.4124 11.8637 8.0249 12.302V5.97931C8.4124 6.41759 8.64717 6.99259 8.64717 7.62189Z" fill="#F8FAFC"/>
<path d="M20 1.97305V11.0323C20 11.3559 19.7377 11.6183 19.4141 11.6183H16.0498V1.97094C16.0511 0.882149 16.934 0 18.0228 0H18.027C18.0332 0 18.039 0 18.0452 0.000429687C19.1266 0.00996094 20 0.889609 20 1.97305Z" fill="#4D4DFF"/>
</g>
<defs>
<clipPath id="clip0_5460_5236">
<rect width="20" height="20" fill="white"/>
</clipPath>
</defs>
</svg>
