<svg width="20" height="20" viewBox="0 0 20 20" fill="none" xmlns="http://www.w3.org/2000/svg">
<g clip-path="url(#clip0_5460_1640)">
<path d="M8.025 0L11.4385 9.96984L8.025 20C7.94063 20 7.85625 19.982 7.77773 19.9453L0.338672 16.423C0.132031 16.327 0 16.1199 0 15.8918V1.97109C0 0.882422 0.884375 0 1.975 0L8.025 0Z" fill="#FF8080"/>
<path d="M18.0226 0C16.9339 0 18.0248 5.27734 18.0248 5.27734L16.0495 11.6182V15.8918C16.0495 16.1199 15.9175 16.327 15.7108 16.423L8.27217 19.9453C8.19365 19.982 8.10928 20 8.0249 20V0L18.0226 0Z" fill="#FF3377"/>
<path d="M20 1.97305V11.0323C20 11.3559 19.7377 11.6183 19.4141 11.6183H16.0498V1.97094C16.0511 0.882149 16.934 0 18.0228 0H18.027C18.0332 0 18.039 0 18.0452 0.000429687C19.1266 0.00996094 20 0.889609 20 1.97305Z" fill="#CC295F"/>
<path d="M5.02572 5.13672C3.65537 5.13672 2.54053 6.2516 2.54053 7.62191V10.6593C2.54053 12.0297 3.65537 13.1445 5.02572 13.1445C6.39607 13.1445 7.51092 12.0296 7.51092 10.6593V7.62191C7.51092 6.2516 6.39607 5.13672 5.02572 5.13672ZM6.33904 10.6593C6.33904 11.3835 5.7499 11.9727 5.02572 11.9727C4.30154 11.9727 3.7124 11.3835 3.7124 10.6593V7.62191C3.7124 6.89773 4.30154 6.30859 5.02572 6.30859C5.7499 6.30859 6.33904 6.89777 6.33904 7.62191V10.6593Z" fill="#F3F3F6"/>
<path d="M13.3777 9.95505H13.0935C13.1038 8.26896 13.11 6.3956 13.0894 6.14775C13.0502 5.67802 12.7734 5.29658 12.384 5.17603C12.1999 5.11904 11.7234 5.04517 11.2787 5.59091C10.89 6.06787 8.9557 9.56232 8.57191 10.258C8.4718 10.4395 8.475 10.6604 8.58039 10.8389C8.68578 11.0174 8.87766 11.127 9.08496 11.127H11.9136C11.91 11.6326 11.9062 12.1194 11.9025 12.5536C11.8996 12.8772 12.1597 13.1418 12.4833 13.1445H12.4885C12.8097 13.1445 13.0715 12.8855 13.0743 12.5636C13.0765 12.3044 13.0809 11.7756 13.0857 11.127H13.3777C13.7013 11.127 13.9636 10.8646 13.9636 10.541C13.9636 10.2174 13.7012 9.95505 13.3777 9.95505ZM11.9213 9.95505H10.08C10.7559 8.74314 11.5225 7.39365 11.9298 6.72572C11.9337 7.39666 11.9291 8.65431 11.9213 9.95505Z" fill="#E1E1EA"/>
</g>
<defs>
<clipPath id="clip0_5460_1640">
<rect width="20" height="20" fill="white"/>
</clipPath>
</defs>
</svg>
