<svg width="20" height="20" viewBox="0 0 20 20" fill="none" xmlns="http://www.w3.org/2000/svg">
<g clip-path="url(#clip0_5460_1652)">
<path d="M8.025 0L11.4385 9.96984L8.025 20C7.94063 20 7.85625 19.982 7.77773 19.9453L0.338672 16.423C0.132031 16.327 0 16.1199 0 15.8918V1.97109C0 0.882422 0.884375 0 1.975 0L8.025 0Z" fill="#FFE14D"/>
<path d="M18.0226 0C16.9339 0 18.0248 5.27734 18.0248 5.27734L16.0495 11.6182V15.8918C16.0495 16.1199 15.9175 16.327 15.7108 16.423L8.27217 19.9453C8.19365 19.982 8.10928 20 8.0249 20V0L18.0226 0Z" fill="#FFBB33"/>
<path d="M20 1.97305V11.0323C20 11.3559 19.7377 11.6183 19.4141 11.6183H16.0498V1.97094C16.0511 0.882149 16.934 0 18.0228 0H18.027C18.0332 0 18.039 0 18.0452 0.000429687C19.1266 0.00996094 20 0.889609 20 1.97305Z" fill="#FF9933"/>
<path d="M4.97889 5.13672C3.60854 5.13672 2.49365 6.2516 2.49365 7.62191V10.6593C2.49365 12.0297 3.60854 13.1445 4.97889 13.1445C6.34924 13.1445 7.46408 12.0296 7.46408 10.6593V7.62191C7.46408 6.2516 6.34924 5.13672 4.97889 5.13672ZM6.29221 10.6593C6.29221 11.3835 5.70307 11.9727 4.97889 11.9727C4.25471 11.9727 3.66553 11.3835 3.66553 10.6593V7.62191C3.66553 6.89773 4.25471 6.30859 4.97889 6.30859C5.70307 6.30859 6.29221 6.89777 6.29221 7.62191V10.6593Z" fill="#F3F3F6"/>
<path d="M11.2461 7.85461C10.9882 7.85461 10.7716 7.86984 10.5791 7.89883L10.8426 6.30859H12.8751C13.1987 6.30859 13.461 6.04625 13.461 5.72266C13.461 5.39906 13.1987 5.13672 12.8751 5.13672H10.3457C10.059 5.13672 9.81447 5.3441 9.76764 5.62688L9.26658 8.65129C9.23033 8.87004 9.31979 9.0909 9.49908 9.22133C9.67838 9.35176 9.91514 9.37023 10.112 9.2684C10.4405 9.11633 10.6517 9.02848 11.246 9.02648C11.6537 9.02648 12.033 9.18957 12.3142 9.48574C12.5952 9.78168 12.7383 10.1698 12.7171 10.5787C12.6773 11.3447 12.0446 11.9569 11.2767 11.9723C10.4572 11.9946 9.76635 11.3161 9.77295 10.4996C9.77295 10.176 9.51061 9.91363 9.18701 9.91363C8.86342 9.91363 8.60107 10.176 8.60107 10.4996C8.60107 10.6229 8.60967 10.7468 8.62654 10.8677C8.80893 12.1746 9.92998 13.1446 11.2463 13.1445C11.2642 13.1445 11.2823 13.1444 11.3003 13.144C12.6796 13.1162 13.8159 12.0161 13.8873 10.6395C13.9254 9.90645 13.6685 9.2102 13.1641 8.67887C12.6668 8.15504 11.9677 7.85461 11.2461 7.85461Z" fill="#E1E1EA"/>
</g>
<defs>
<clipPath id="clip0_5460_1652">
<rect width="20" height="20" fill="white"/>
</clipPath>
</defs>
</svg>
