<svg width="20" height="20" viewBox="0 0 20 20" fill="none" xmlns="http://www.w3.org/2000/svg">
<g clip-path="url(#clip0_5460_1628)">
<path d="M8.025 0L11.4385 9.96984L8.025 20C7.94063 20 7.85625 19.982 7.77773 19.9453L0.338672 16.423C0.132031 16.327 0 16.1199 0 15.8918V1.97109C0 0.882422 0.884375 0 1.975 0L8.025 0Z" fill="#AA80FF"/>
<path d="M18.0226 0C16.9339 0 18.0248 5.27734 18.0248 5.27734L16.0495 11.6182V15.8918C16.0495 16.1199 15.9175 16.327 15.7108 16.423L8.27217 19.9453C8.19365 19.982 8.10928 20 8.0249 20V0L18.0226 0Z" fill="#9966FF"/>
<path d="M20 1.97305V11.0323C20 11.3559 19.7377 11.6183 19.4141 11.6183H16.0498V1.97094C16.0511 0.882149 16.934 0 18.0228 0H18.027C18.0332 0 18.039 0 18.0452 0.000429687C19.1266 0.00996094 20 0.889609 20 1.97305Z" fill="#7733FF"/>
<path d="M13.2729 7.43164C13.2729 6.16621 12.2435 5.13672 10.978 5.13672C9.88385 5.13672 8.93678 5.91508 8.72615 6.98746C8.66377 7.305 8.87064 7.61297 9.18818 7.67535C9.50568 7.7377 9.81369 7.53086 9.87607 7.21332C9.97904 6.6891 10.4425 6.30859 10.978 6.30859C11.5973 6.30859 12.1011 6.81238 12.1011 7.43164C12.1011 8.0509 11.5973 8.55469 10.978 8.55469C10.6544 8.55469 10.3921 8.81703 10.3921 9.14062C10.3921 9.46422 10.6544 9.72656 10.978 9.72656C11.5973 9.72656 12.1011 10.2304 12.1011 10.8496C12.1011 11.4689 11.5973 11.9727 10.978 11.9727C10.3658 11.9767 9.84912 11.4609 9.85498 10.8496C9.85498 10.526 9.59264 10.2637 9.26904 10.2637C8.94545 10.2637 8.68311 10.526 8.68311 10.8496C8.68311 10.9564 8.69053 11.0639 8.70521 11.1689C8.86236 12.2952 9.83947 13.1445 10.978 13.1445C12.2435 13.1445 13.2729 12.115 13.2729 10.8496C13.2729 10.1714 12.977 9.56113 12.5076 9.14062C12.977 8.72012 13.2729 8.10988 13.2729 7.43164Z" fill="#E2E2EB"/>
<path d="M4.9491 5.13672C3.57875 5.13672 2.46387 6.2516 2.46387 7.62191V10.6593C2.46387 12.0297 3.57875 13.1445 4.9491 13.1445C6.31945 13.1445 7.4343 12.0296 7.4343 10.6593V7.62191C7.4343 6.2516 6.31941 5.13672 4.9491 5.13672ZM6.26242 10.6593C6.26242 11.3835 5.67324 11.9727 4.9491 11.9727C4.22492 11.9727 3.63574 11.3835 3.63574 10.6593V7.62191C3.63574 6.89773 4.22492 6.30859 4.9491 6.30859C5.67328 6.30859 6.26242 6.89777 6.26242 7.62191V10.6593Z" fill="#F4F4F7"/>
</g>
<defs>
<clipPath id="clip0_5460_1628">
<rect width="20" height="20" fill="white"/>
</clipPath>
</defs>
</svg>
