<svg width="20" height="20" viewBox="0 0 20 20" fill="none" xmlns="http://www.w3.org/2000/svg">
<g clip-path="url(#clip0_5460_5249)">
<path d="M8.025 0L11.4385 9.96984L8.025 20C7.94063 20 7.85625 19.982 7.77773 19.9453L0.338672 16.423C0.132031 16.327 0 16.1199 0 15.8918V1.97109C0 0.882422 0.884375 0 1.975 0L8.025 0Z" fill="#6BB324"/>
<path d="M18.0226 0C16.9339 0 18.0248 5.27734 18.0248 5.27734L16.0495 11.6182V15.8918C16.0495 16.1199 15.9175 16.327 15.7108 16.423L8.27217 19.9453C8.19365 19.982 8.10928 20 8.0249 20V0L18.0226 0Z" fill="#34A853"/>
<path d="M20 1.97305V11.0323C20 11.3559 19.7377 11.6183 19.4141 11.6183H16.0498V1.97094C16.0511 0.882149 16.934 0 18.0228 0H18.027C18.0332 0 18.039 0 18.0452 0.000429687C19.1266 0.00996094 20 0.889609 20 1.97305Z" fill="#6BB324"/>
<path d="M5.0068 5.11719C3.63047 5.11719 2.51074 6.23691 2.51074 7.61324V10.668C2.51074 12.0443 3.63047 13.1641 5.0068 13.1641C6.38312 13.1641 7.50285 12.0443 7.50285 10.668V7.61324C7.50285 6.23691 6.38312 5.11719 5.0068 5.11719ZM6.33098 10.668C6.33098 11.3982 5.73695 11.9922 5.0068 11.9922C4.27664 11.9922 3.68262 11.3982 3.68262 10.668V7.61324C3.68262 6.88309 4.27664 6.28906 5.0068 6.28906C5.73695 6.28906 6.33098 6.88309 6.33098 7.61324V10.668Z" fill="#F8FAFC"/>
<path d="M12.958 11.9766C12.9555 11.9766 12.953 11.9766 12.9505 11.9767C12.124 11.9871 11.2407 11.9933 10.5883 11.992C10.968 11.4902 11.5507 10.7054 12.4018 9.48922C12.9081 8.7359 13.2037 8.17211 13.258 7.42856C13.258 6.15406 12.2211 5.11719 10.9466 5.11719C9.8446 5.11719 8.89077 5.90109 8.67858 6.98117C8.6162 7.29871 8.82307 7.60668 9.14061 7.66906C9.45823 7.73145 9.76612 7.52453 9.8285 7.20703C9.93299 6.67512 10.4032 6.28906 10.9466 6.28906C11.622 6.28238 12.1939 6.91359 12.0615 7.58387C11.9734 7.94066 11.765 8.35543 11.4418 8.81727C10.3715 10.3464 9.14557 11.9516 9.08014 12.0469C9.00823 12.1516 8.83987 12.3968 8.93339 12.7008C8.9928 12.8939 9.13967 13.0423 9.33635 13.1079C9.41581 13.1343 9.50893 13.1655 10.7942 13.1655C11.305 13.1655 12.0041 13.1606 12.9652 13.1485C13.2888 13.1444 13.5478 12.8788 13.5437 12.5552C13.5397 12.2341 13.2781 11.9766 12.958 11.9766Z" fill="#F8FAFC"/>
</g>
<defs>
<clipPath id="clip0_5460_5249">
<rect width="20" height="20" fill="white"/>
</clipPath>
</defs>
</svg>
